<svg xmlns="http://www.w3.org/2000/svg" width="22.769" height="22.754" viewBox="0 0 22.769 22.754">
  <path id="home" d="M21.935,8.6l-7.2-7.2a4.751,4.751,0,0,0-6.709,0L.834,8.6A2.825,2.825,0,0,0,0,10.617V19.93a2.846,2.846,0,0,0,2.846,2.846H19.922a2.846,2.846,0,0,0,2.846-2.846V10.617A2.825,2.825,0,0,0,21.935,8.6Zm-7.7,12.274H8.538V17.146a2.846,2.846,0,0,1,5.692,0Zm6.641-.949a.949.949,0,0,1-.949.949H16.128V17.146a4.743,4.743,0,0,0-9.487,0v3.732H2.846A.949.949,0,0,1,1.9,19.93V10.617a.956.956,0,0,1,.278-.671l7.2-7.194a2.854,2.854,0,0,1,4.026,0l7.2,7.2a.956.956,0,0,1,.278.668Z" transform="translate(0 -0.021)" fill="#818181"/>
</svg>
