<svg xmlns="http://www.w3.org/2000/svg" width="23.853" height="23.509" viewBox="0 0 23.853 23.509">
  <g id="location" transform="translate(-1.55 -1.55)">
    <path id="Path_11637" data-name="Path 11637" d="M26.729,2A8.518,8.518,0,0,0,18,10.29v.4a.391.391,0,0,0,.423.352.385.385,0,0,0,.371-.4v-.35a7.743,7.743,0,0,1,7.935-7.536,7.743,7.743,0,0,1,7.935,7.536c0,4.522-6.467,11.791-7.935,13.377l-.4-.433a.411.411,0,0,0-.559-.041.364.364,0,0,0-.044.531c.436.486.706.754.706.754a.409.409,0,0,0,.587.008c.345-.358,8.435-8.814,8.435-14.2A8.518,8.518,0,0,0,26.729,2Z" transform="translate(-10.505)" fill="#818181" stroke="#818181" stroke-width="0.9"/>
    <path id="Path_11638" data-name="Path 11638" d="M34.748,20.5A2.748,2.748,0,1,0,32,17.748,2.748,2.748,0,0,0,34.748,20.5Zm0-4.808a2.061,2.061,0,1,1-2.061,2.061A2.061,2.061,0,0,1,34.748,15.687Z" transform="translate(-18.097 -7.944)" fill="#818181" stroke="#818181" stroke-width="0.9"/>
    <path id="Path_11639" data-name="Path 11639" d="M12.912,31.22l-3.981-2.9a1.855,1.855,0,0,0-2.188,0l-3.977,2.9A1.865,1.865,0,0,0,2,32.724v5.07a1.862,1.862,0,0,0,1.858,1.858H5.366a1.1,1.1,0,0,0,1.1-1.1v-2.6a.416.416,0,0,1,.416-.416H8.8a.416.416,0,0,1,.412.416v2.607a1.1,1.1,0,0,0,1.1,1.1h1.5a1.862,1.862,0,0,0,1.862-1.858v-5.07A1.865,1.865,0,0,0,12.912,31.22Zm.079,6.574a1.175,1.175,0,0,1-1.171,1.171h-1.5a.416.416,0,0,1-.416-.416v-2.6a1.1,1.1,0,0,0-1.1-1.1H6.881a1.1,1.1,0,0,0-1.1,1.1v2.607a.416.416,0,0,1-.412.412H3.858a1.175,1.175,0,0,1-1.171-1.171v-5.07a1.175,1.175,0,0,1,.484-.948l3.981-2.892a1.171,1.171,0,0,1,1.374,0l3.981,2.892a1.175,1.175,0,0,1,.484.948Z" transform="translate(0 -15.043)" fill="#818181" stroke="#818181" stroke-width="0.9"/>
  </g>
</svg>
