<svg xmlns="http://www.w3.org/2000/svg" width="266.577" height="64.391" viewBox="0 0 266.577 64.391">
  <g id="Logo" transform="translate(-425 -1060.593)">
    <g id="Group_2" data-name="Group 2" transform="translate(425 1060.593)">
      <path id="Path_1" data-name="Path 1" d="M448.857,1064.31a22.23,22.23,0,0,1,13.277,4.973c3.576,2.964,3.776,5.469.748,9.572s-5.806,4.607-9.789,2.245a21.439,21.439,0,0,0-6.962-2.838,4.266,4.266,0,0,0-5.234,3.342c-.682,2.993,1.2,4.553,3.638,5.341,2.887.936,5.9,1.492,8.849,2.229,11.676,2.915,15.886,8.307,15.062,19.279-.695,9.257-8.511,16.692-18.579,17.573-9.428.825-17.5-1.724-23.277-9.693-2.539-3.5-2.064-6.192,1.618-9.711,2.854-2.728,5.436-2.843,8.714-.266,1.283,1.009,2.407,2.216,3.627,3.306a9.078,9.078,0,0,0,9.692,2.047c2.29-.811,3.507-2.6,3.141-4.76a5.692,5.692,0,0,0-2.739-3.844c-3.71-1.515-7.719-2.279-11.506-3.632-11.774-4.208-16.524-14.839-11.357-25.137C431.1,1067.72,437.343,1064.333,448.857,1064.31Z" transform="translate(-425 -1061.783)" fill="#fff"/>
      <path id="Path_2" data-name="Path 2" d="M582.022,1085.128c10.766-8.888,25.131-1.068,27.352,11.2,1.4,7.733.8,15.854.8,23.8,0,2.721-1.969,4.267-4.809,4.352-1.092.032-2.185.07-3.276.047-4.674-.1-6.192-1.643-6.233-6.419-.045-5.134.051-10.271-.079-15.4-.073-2.9-1.169-5.366-4.177-6.414a6.713,6.713,0,0,0-7.739,2.015,8.891,8.891,0,0,0-1.746,5.011c-.233,4.8-.031,9.611-.115,14.416-.041,2.4-.037,5.553-2.784,6.018a28.2,28.2,0,0,1-10.094-.586c-.839-.171-1.669-2.769-1.68-4.258q-.187-25.725-.051-51.453c.031-4.764,1.759-6.024,6.961-6.021,5.736,0,7.479,1.267,7.628,6.123C582.155,1073.192,582.022,1078.838,582.022,1085.128Z" transform="translate(-470.538 -1060.862)" fill="#fff"/>
      <path id="Path_3" data-name="Path 3" d="M764.62,1085.316c11.194-10.038,27.042.071,28.146,14.063.513,6.511.309,13.09.218,19.635-.053,3.813-1.706,5.272-5.461,5.5-7.533.449-9.085-1.011-9.114-8.573-.016-4.256.029-8.515-.065-12.77-.1-4.782-2.431-7.369-6.454-7.374a7.422,7.422,0,0,0-7.257,7.589c-.032,5.021.031,10.042-.027,15.063-.051,4.4-1.551,5.891-5.891,6.063-.763.031-1.528.036-2.291.021-4.771-.1-6.3-1.563-6.341-6.3-.056-6.549-.015-13.1-.015-19.648,0-10.151-.02-20.3.011-30.454.016-5.338,1.531-6.7,7.271-6.7,5.716-.007,7.226,1.357,7.263,6.709C764.649,1073.693,764.62,1079.252,764.62,1085.316Z" transform="translate(-529.003 -1060.86)" fill="#fff"/>
      <path id="Path_4" data-name="Path 4" d="M706.206,1093.658c2.45-3.316,8.664-4.776,12.135-2.429a5.737,5.737,0,0,1,2.076,3.784c.36,3.568.328,7.18.348,10.775.036,6.656.061,13.314-.039,19.969-.043,2.868.444,6.128-3.128,7.54a11,11,0,0,1-11.571-2.851c-3.744,3.389-8.32,3.91-13.046,2.935-4.826-.995-8.336-4.137-11.281-7.921a22.118,22.118,0,0,1,.777-27.809c5.391-6.271,12.371-8.839,18.5-6.637A45.547,45.547,0,0,1,706.206,1093.658Zm-14.275,18.521a7.089,7.089,0,0,0,6.846,6.922,7.062,7.062,0,0,0,.054-14.11A7.029,7.029,0,0,0,691.931,1112.179Z" transform="translate(-505.68 -1070.027)" fill="#fff"/>
      <path id="Path_5" data-name="Path 5" d="M523.238,1093.722c2.864-3.341,8.18-4.749,11.717-2.755a6.112,6.112,0,0,1,2.76,4.332c.239,11.132.218,22.271.1,33.406-.035,3.391-1.761,4.856-5.249,4.942-3.351.083-6.924.618-9.159-3.368a12.53,12.53,0,0,1-12.486,3.121,23.216,23.216,0,0,1-9.493-5.344,21.651,21.651,0,0,1-4.63-26.08,22.649,22.649,0,0,1,9.453-9.71C512.139,1089.181,517.786,1089.52,523.238,1093.722Zm-.529,18.28a6.86,6.86,0,0,0-6.719-6.991,7.274,7.274,0,0,0-6.958,7.238,7.384,7.384,0,0,0,7.029,6.847A7.019,7.019,0,0,0,522.709,1112Z" transform="translate(-447.178 -1070.018)" fill="#fff"/>
      <path id="Path_6" data-name="Path 6" d="M639.559,1088.278c0-6.554-.077-13.11.022-19.663.1-6.744,6.665-10.249,12.323-6.476a6.22,6.22,0,0,1,2.139,4.11,90.885,90.885,0,0,1,.259,9.813c.03,10.159.082,20.318,0,30.477-.022,2.646.6,4.114,3.614,4.046,2.229-.05,3.629,1.31,3.867,3.644.022.216.092.429.112.645.882,9.7-1.374,10.341-9.324,9.787-.649-.046-1.288-.233-1.936-.326-7.6-1.082-10.237-3.506-10.579-11.173-.369-8.28-.084-16.588-.084-24.884Z" transform="translate(-493.64 -1060.593)" fill="#fff"/>
    </g>
    <g id="Group_6" data-name="Group 6" transform="translate(674.363 1074.393)">
      <g id="Group_3" data-name="Group 3" transform="translate(0 0)">
        <circle id="Ellipse_1" data-name="Ellipse 1" cx="8.43" cy="8.43" r="8.43" transform="translate(0.177 0.177)" fill="#0a9c2d"/>
        <path id="Path_7" data-name="Path 7" d="M800.294,1098.1a8.607,8.607,0,1,1,8.607-8.607A8.616,8.616,0,0,1,800.294,1098.1Zm0-16.859a8.252,8.252,0,1,0,8.252,8.252A8.262,8.262,0,0,0,800.294,1081.24Z" transform="translate(-791.687 -1080.886)" fill="#fff"/>
      </g>
      <g id="Group_5" data-name="Group 5" transform="translate(3.238 4.753)">
        <g id="Group_4" data-name="Group 4">
          <path id="Path_8" data-name="Path 8" d="M799.708,1095.935l-2.605-2.605a.7.7,0,0,1,0-.986l.306-.306a.7.7,0,0,1,.986,0l1.313,1.313a.7.7,0,0,0,.986,0l4.822-4.822a.7.7,0,0,1,.985,0l.307.307a.7.7,0,0,1,0,.986l-6.114,6.114A.7.7,0,0,1,799.708,1095.935Z" transform="translate(-796.592 -1088.019)" fill="#fff"/>
          <path id="Path_9" data-name="Path 9" d="M799.564,1096.1l-2.912-2.912a.7.7,0,0,1,0-.986l.613-.613a.7.7,0,0,1,.986,0l1.313,1.314a.7.7,0,0,0,.986,0l4.822-4.822a.7.7,0,0,1,.985,0l.613.613a.7.7,0,0,1,0,.986l-6.42,6.42A.7.7,0,0,1,799.564,1096.1Zm-2.3-2.912,2.3,2.3a.7.7,0,0,0,.986,0l5.808-5.807a.7.7,0,0,0,0-.986h0a.7.7,0,0,0-.985,0l-4.822,4.822a.7.7,0,0,1-.986,0l-1.313-1.314a.7.7,0,0,0-.986,0h0A.7.7,0,0,0,797.265,1093.186Z" transform="translate(-796.448 -1087.875)" fill="#fff"/>
        </g>
      </g>
    </g>
  </g>
</svg>
