<svg xmlns="http://www.w3.org/2000/svg" xmlns:xlink="http://www.w3.org/1999/xlink" width="345.592" height="287.486" viewBox="0 0 345.592 287.486">
  <defs>
    <clipPath id="clip-path">
      <path id="SVGID" d="M377.132,165.948a3.441,3.441,0,0,0-3.2-3.029,3.664,3.664,0,0,0-1.049.04,4.618,4.618,0,0,0-3.037,2.508,1.243,1.243,0,0,0,.906,1.829,19.5,19.5,0,0,0,5.758-.147.8.8,0,0,0,.666-.889C377.17,166.162,377.153,166.057,377.132,165.948Z" transform="translate(-369.697 -162.898)" fill="none"/>
    </clipPath>
  </defs>
  <g id="Group_16502" data-name="Group 16502" transform="translate(-292.451 -141.524)">
    <g id="Group_16443" data-name="Group 16443" transform="translate(292.451 176.156)">
      <g id="Group_16442" data-name="Group 16442">
        <g id="Group_16441" data-name="Group 16441">
          <g id="Group_16440" data-name="Group 16440">
            <g id="Group_16437" data-name="Group 16437">
              <g id="Group_16436" data-name="Group 16436">
                <g id="Group_16435" data-name="Group 16435" opacity="0.61">
                  <g id="Group_16434" data-name="Group 16434">
                    <g id="Group_16427" data-name="Group 16427">
                      <g id="Group_16424" data-name="Group 16424" transform="translate(0 159.156)" opacity="0.41">
                        <path id="Path_12169" data-name="Path 12169" d="M294.254,245.619c-2.3-2.743-2.415-6.922-.244-9.331s7.307-3.813,9.613-1.07-.971,6.668-1.757,10.1C300.768,250.111,296.56,248.362,294.254,245.619Z" transform="translate(-292.451 -233.715)" fill="#ff9455"/>
                      </g>
                      <g id="Group_16425" data-name="Group 16425" transform="translate(332.499 128.587)" opacity="0.41">
                        <path id="Path_12170" data-name="Path 12170" d="M461.1,221.127a8.722,8.722,0,0,1,1.328,10.823c-2.152,3.422-7.729,6.508-10.613,3.954s.33-8.055.822-12.286C453.324,217.718,458.219,218.573,461.1,221.127Z" transform="translate(-450.631 -219.172)" fill="#ff9455"/>
                      </g>
                      <g id="Group_16426" data-name="Group 16426" transform="translate(174.292)" opacity="0.41">
                        <path id="Path_12171" data-name="Path 12171" d="M377.561,161.827c3.073-3.887,9.253-5,13.8-2.478s8.913,9.457,5.839,13.344-10.369.153-15.839-.172C373.74,172.063,374.488,165.715,377.561,161.827Z" transform="translate(-375.367 -157.999)" fill="#ff9455"/>
                      </g>
                    </g>
                    <g id="Group_16430" data-name="Group 16430" transform="translate(16.862 11.195)" opacity="0.28">
                      <g id="Group_16429" data-name="Group 16429">
                        <g id="Group_16428" data-name="Group 16428">
                          <path id="Path_12172" data-name="Path 12172" d="M305.858,379.889c-3.279-19.36,1.978-35.873,3.29-54.857,1.242-17.972-4.135-33.086-7.117-50.2-2.655-15.233-1.772-32.487,1.562-47.46,4.551-20.442,15.03-39.369,30.128-50.909,23.526-17.979,54.9-15.862,80.89-3.5,10.884,5.182,21.426,12.074,33.084,13.819,17,2.541,33.551-6.157,50.113-11.376,22.544-7.1,47.294-7.63,68.566,3.582,24.119,12.713,41.267,41.41,39.264,73.018-.908,14.323-5.554,28.457-3.908,42.684,1.667,14.43,8.887,26.5,12.711,40.094a114.645,114.645,0,0,1,2.829,44.109,23.734,23.734,0,0,1-23.53,20.524H329.218a23.557,23.557,0,0,1-23.324-19.326Z" transform="translate(-300.473 -163.325)" fill="#ff9455"/>
                        </g>
                      </g>
                    </g>
                    <g id="Group_16433" data-name="Group 16433" transform="translate(57.084 76.01)" opacity="0.66">
                      <g id="Group_16432" data-name="Group 16432">
                        <g id="Group_16431" data-name="Group 16431" opacity="0.47">
                          <path id="Path_12173" data-name="Path 12173" d="M551.33,270.422c-1.135-13.861-6.6-27.743-16.062-37.664-14.744-15.46-37.048-19.356-56.6-15.782-8.187,1.5-16.308,4.149-24.69,3.315-12.227-1.217-23-9.562-34.131-15.679-15.154-8.326-32.525-12.808-48.637-9.186a45.122,45.122,0,0,0-35.03,40.214c-.809,9.329,7.418,25.765,4.822,34.606-2.634,8.967-21.863,36.435-21.39,57.327.406,17.806,3.7,25.117,8.57,33.481a8.792,8.792,0,0,0,7.593,4.383H528.935a8.751,8.751,0,0,0,8.326-6.012c2.682-8.215,3.962-15.99.277-27.354-3.645-11.246,6.26-20.507,10.092-30.976C551.04,291.777,552.162,280.573,551.33,270.422Z" transform="translate(-319.608 -194.16)" fill="#ff9455"/>
                        </g>
                      </g>
                    </g>
                  </g>
                </g>
              </g>
            </g>
            <g id="Group_16439" data-name="Group 16439" transform="translate(340.163 63.079)">
              <g id="Group_16438" data-name="Group 16438">
                <path id="Path_12174" data-name="Path 12174" d="M454.277,188.008" transform="translate(-454.277 -188.008)" fill="#fff" stroke="#fca97c" stroke-miterlimit="10" stroke-width="0.5"/>
              </g>
            </g>
          </g>
        </g>
      </g>
    </g>
    <g id="Group_16499" data-name="Group 16499" transform="translate(326.793 160.741)">
      <g id="Group_16452" data-name="Group 16452" transform="translate(0 9.11)">
        <g id="Group_16450" data-name="Group 16450" transform="translate(0 2.469)">
          <circle id="Ellipse_1278" data-name="Ellipse 1278" cx="53.318" cy="53.318" r="53.318" transform="translate(5.188 111.649) rotate(-86.718)" fill="#f9b361"/>
          <circle id="Ellipse_1279" data-name="Ellipse 1279" cx="43.513" cy="43.513" r="43.513" transform="translate(0 64.329) rotate(-47.663)" fill="#fff"/>
          <g id="Group_16448" data-name="Group 16448" transform="translate(22.6 22.629)">
            <g id="Group_16444" data-name="Group 16444" transform="translate(18.186 2.25)">
              <path id="Path_12175" data-name="Path 12175" d="M346.077,175.093h0a1.175,1.175,0,0,1-.46-1.6l2.7-4.881a1.172,1.172,0,0,1,1.6-.458h0a1.172,1.172,0,0,1,.458,1.6l-2.7,4.879A1.175,1.175,0,0,1,346.077,175.093Z" transform="translate(-309.15 -168.011)" fill="#fd4932"/>
              <path id="Path_12176" data-name="Path 12176" d="M328.8,206.469h0a1.173,1.173,0,0,1-.458-1.6l2.7-4.881a1.172,1.172,0,0,1,1.6-.458h0a1.174,1.174,0,0,1,.46,1.6l-2.7,4.879A1.174,1.174,0,0,1,328.8,206.469Z" transform="translate(-328.192 -133.433)" fill="#fd4932"/>
            </g>
            <g id="Group_16445" data-name="Group 16445" transform="translate(2.279 18.157)">
              <path id="Path_12177" data-name="Path 12177" d="M352.147,193.463h0a1.177,1.177,0,0,1,1.6-.46l4.879,2.7a1.175,1.175,0,0,1,.46,1.6h0a1.173,1.173,0,0,1-1.6.458l-4.881-2.7A1.175,1.175,0,0,1,352.147,193.463Z" transform="translate(-286.047 -156.537)" fill="#fd4932"/>
              <path id="Path_12178" data-name="Path 12178" d="M320.771,176.183h0a1.177,1.177,0,0,1,1.6-.458l4.879,2.7a1.175,1.175,0,0,1,.46,1.6h0a1.176,1.176,0,0,1-1.6.46l-4.881-2.7A1.175,1.175,0,0,1,320.771,176.183Z" transform="translate(-320.624 -175.578)" fill="#fd4932"/>
            </g>
            <g id="Group_16446" data-name="Group 16446" transform="translate(0 26.761)">
              <path id="Path_12179" data-name="Path 12179" d="M354.131,181.956h0a1.174,1.174,0,0,1,.805-1.452l2.731-.786a1.175,1.175,0,0,1,1.453.805h0a1.175,1.175,0,0,1-.805,1.452l-2.728.784A1.175,1.175,0,0,1,354.131,181.956Z" transform="translate(-281.47 -179.671)" fill="#fd4932"/>
              <path id="Path_12180" data-name="Path 12180" d="M319.586,192.062h0a1.175,1.175,0,0,1,.8-1.453l3.376-.971a1.177,1.177,0,0,1,1.455.8h0a1.176,1.176,0,0,1-.805,1.455l-3.376.971A1.174,1.174,0,0,1,319.586,192.062Z" transform="translate(-319.54 -168.738)" fill="#fd4932"/>
            </g>
            <g id="Group_16447" data-name="Group 16447" transform="translate(26.76)">
              <path id="Path_12181" data-name="Path 12181" d="M343.129,201.532h0a1.174,1.174,0,0,1,1.453.8l.786,2.731a1.175,1.175,0,0,1-.8,1.453h0a1.175,1.175,0,0,1-1.455-.8l-.784-2.731A1.175,1.175,0,0,1,343.129,201.532Z" transform="translate(-321.24 -128.869)" fill="#fd4932"/>
              <path id="Path_12182" data-name="Path 12182" d="M333.12,166.986h0a1.174,1.174,0,0,1,1.453.805l.971,3.376a1.173,1.173,0,0,1-.8,1.453h0a1.174,1.174,0,0,1-1.453-.8l-.971-3.376A1.175,1.175,0,0,1,333.12,166.986Z" transform="translate(-332.271 -166.94)" fill="#fd4932"/>
            </g>
          </g>
          <g id="Group_16449" data-name="Group 16449" transform="translate(53.933 37.143)">
            <path id="Path_12183" data-name="Path 12183" d="M342.274,198.023h0a1.294,1.294,0,0,1-1.6-.891L334.5,175.5a1.294,1.294,0,0,1,.891-1.6h0a1.294,1.294,0,0,1,1.6.891l6.176,21.634A1.3,1.3,0,0,1,342.274,198.023Z" transform="translate(-334.446 -173.845)" fill="#fd4932"/>
            <path id="Path_12184" data-name="Path 12184" d="M337.73,189.532h0a1.3,1.3,0,0,1,.891-1.6l18.078-5.16a1.3,1.3,0,0,1,1.6.891h0a1.3,1.3,0,0,1-.891,1.6l-18.078,5.16A1.3,1.3,0,0,1,337.73,189.532Z" transform="translate(-330.882 -164.064)" fill="#fd4932"/>
          </g>
          <path id="Path_12185" data-name="Path 12185" d="M344.608,190.157a4.7,4.7,0,1,1-1.837-6.386A4.7,4.7,0,0,1,344.608,190.157Z" transform="translate(-279.026 -126.412)" fill="#f9b361"/>
        </g>
        <g id="Group_16451" data-name="Group 16451" transform="translate(177.015)">
          <path id="Vector" d="M40.58,60.594c-3.368,3.258-7.731,9.046-12.094,9.046s-8.726-5.788-12.126-9.046C7.186,51.81-2.951,37.851.8,21.369,4.17,6.612,17.13,0,28.454,0h.032C39.842,0,52.77,6.644,56.138,21.4,59.891,37.883,49.754,51.81,40.58,60.594ZM38.591,27.342A10.1,10.1,0,1,0,28.486,37.4,10.082,10.082,0,0,0,38.591,27.342Z" transform="translate(0.771 -0.791)" fill="#23aa49"/>
          <path id="Path_12186" data-name="Path 12186" d="M410.913,153.488c-.753,0-6.513.824-7.251.883,14.336,1.139,28.1,14.007,28.1,28.64,0,12.736-17.322,33.662-23.893,40.243,1.364,1.366,6.315-2.924,6.315-2.924s9.961-7.924,16.486-17.85a35.832,35.832,0,0,0,5.553-19.469C436.227,167.626,426.3,153.488,410.913,153.488Z" transform="translate(-378.516 -154.829)" fill="#fff" opacity="0.3"/>
          <path id="Path_12187" data-name="Path 12187" d="M415.155,160.36a15.73,15.73,0,1,0,15.732,15.73A15.746,15.746,0,0,0,415.155,160.36Z" transform="translate(-385.916 -149.093)" fill="#fff"/>
        </g>
      </g>
      <g id="Group_16498" data-name="Group 16498" transform="translate(7.049)">
        <g id="Group_16458" data-name="Group 16458" transform="translate(0 95.147)">
          <g id="Group_16454" data-name="Group 16454" transform="translate(203.376 91.568)">
            <g id="Group_16453" data-name="Group 16453" transform="translate(5.82 6.841)">
              <circle id="Ellipse_1280" data-name="Ellipse 1280" cx="31.053" cy="31.053" r="31.053" transform="translate(0 60.444) rotate(-76.718)" fill="#390028"/>
              <circle id="Ellipse_1281" data-name="Ellipse 1281" cx="17.557" cy="17.557" r="17.557" transform="translate(19.799 20.508)" fill="#fff"/>
            </g>
            <path id="Path_12188" data-name="Path 12188" d="M408.894,239.492h41.923a31.575,31.575,0,0,1,31.575,31.572h-73.5Z" transform="translate(-408.894 -239.492)" fill="#f94a3d"/>
          </g>
          <path id="Path_12189" data-name="Path 12189" d="M448.27,266.034l-25.582-34.805a28.686,28.686,0,0,1-4.753-10.18l-.122-.5,7.878-1.923a1.109,1.109,0,0,0,.816-1.343l-4.379-17.935a4.229,4.229,0,0,0-5.108-3.1l-7.744,1.892a11.9,11.9,0,0,0-8.736,14.382c.025.1.061.193.088.292l-.017,0,7.576,31.022,6.077-9.417v86.736L426.392,332.2l23.574-37.456A26.339,26.339,0,0,0,448.27,266.034Z" transform="translate(-215.1 -195.723)" fill="#ff7664"/>
          <path id="Path_12190" data-name="Path 12190" d="M417.926,221l-.111-.458,7.878-1.923a1.109,1.109,0,0,0,.816-1.343l-4.379-17.935a4.229,4.229,0,0,0-5.108-3.1l-7.744,1.892a11.9,11.9,0,0,0-8.736,14.382c.025.1.061.193.088.292l-.017,0,1.953,8,15-.122C417.688,220.8,417.806,220.889,417.926,221Z" transform="translate(-215.1 -195.723)" fill="#ff5e4d"/>
          <path id="Path_12191" data-name="Path 12191" d="M373.815,278.719h75.337a21.839,21.839,0,0,0,21.84-21.838v-2.369H362.414v12.806A11.4,11.4,0,0,0,373.815,278.719Z" transform="translate(-256.741 -131.372)" fill="#ff7664"/>
          <path id="Path_12192" data-name="Path 12192" d="M446.162,280.721,322.035,269.83a1.873,1.873,0,0,1-1.709-1.991,55.27,55.27,0,0,1,.591-5.547,38.952,38.952,0,0,1,38.242-31.562H438.65a4.232,4.232,0,0,1,3.62,6.426l-4.776,7.887a25.237,25.237,0,0,0,4.072,31.247Z" transform="translate(-303.127 -157.58)" fill="#ff7664"/>
          <path id="Path_12193" data-name="Path 12193" d="M446.217,230.955h-87a38.907,38.907,0,0,0-38.942,38.94h0L385.7,275s-9.94-4.229-9.94-26.946c0-17.357,24.182-17.525,24.182-17.525" transform="translate(-303.182 -157.805)" fill="#f94a3d"/>
          <path id="Path_12194" data-name="Path 12194" d="M399.641,230.955H356.2c-11.656,0-32.8,12.894-35.306,30.185a61.105,61.105,0,0,0-.624,8.755h0l39.527,3.084s-6.39-1.89-4.561-24.928c1.375-17.3,15.24-17.525,15.24-17.525" transform="translate(-303.182 -157.805)" fill="#390028" opacity="0.25"/>
          <g id="Group_16455" data-name="Group 16455" transform="translate(0 9.153)">
            <path id="Path_12195" data-name="Path 12195" d="M327.3,269.629h50.369a5.652,5.652,0,0,0,5.907-5.356V205.641a5.652,5.652,0,0,0-5.907-5.356H327.138c-8.156,0-14.767,5.995-14.767,13.392v42.411C312.371,263.567,319.055,269.629,327.3,269.629Z" transform="translate(-311.89 -200.285)" fill="#ff7664"/>
            <path id="Path_12196" data-name="Path 12196" d="M327.114,238.971h50.369c3.262,0,5.907-6.882,5.907-9.84,0,0-71.082-1.69-70.847-.736C314.035,234.45,319.992,238.971,327.114,238.971Z" transform="translate(-311.702 -169.628)" fill="#ff5e4d"/>
            <path id="Path_12197" data-name="Path 12197" d="M383.577,218.737v-13.1a5.652,5.652,0,0,0-5.907-5.356H327.138c-8.156,0-14.767,5.995-14.767,13.392v5.358Z" transform="translate(-311.89 -200.285)" fill="#ff5e4d"/>
            <path id="Path_12198" data-name="Path 12198" d="M382.844,230.2H313.193a1.051,1.051,0,0,1,0-2.1h69.651a1.051,1.051,0,0,1,0,2.1Z" transform="translate(-312.142 -169.64)" fill="#ff4628"/>
            <path id="Path_12199" data-name="Path 12199" d="M382.844,211.033H313.193a1.051,1.051,0,0,1,0-2.1h69.651a1.051,1.051,0,0,1,0,2.1Z" transform="translate(-312.142 -190.757)" fill="#ff4628"/>
          </g>
          <g id="Group_16456" data-name="Group 16456" transform="translate(66.003 46.84)">
            <path id="Path_12200" data-name="Path 12200" d="M423.232,254.291a2.571,2.571,0,0,1-2.476,2.947l-59.265-.658c-5.5-.061-10.46-3.9-12.5-9.686l-4.816-13.642c-2.2-6.241,1.593-13,7.513-13.39l56.728-1.644c6-.174,11.2,4.837,11.975,11.553Z" transform="translate(-343.542 -218.214)" fill="#f94a3d"/>
          </g>
          <path id="Path_12201" data-name="Path 12201" d="M406.258,218.218l-56.728,1.644a7.946,7.946,0,0,0-4.032,1.419l3.864,10.945c2.041,5.785,7,9.625,12.5,9.686l57.852.641-1.482-12.782C417.454,223.055,412.262,218.044,406.258,218.218Z" transform="translate(-275.382 -171.374)" fill="#390028" opacity="0.22"/>
          <path id="Path_12202" data-name="Path 12202" d="M499.758,252.559a14.176,14.176,0,0,0-.86-2.314L479.587,211.62h0a16.116,16.116,0,0,0-8.013,20.434l4.383,11.124a54.739,54.739,0,0,1,3.807,20.049v11.219a27.336,27.336,0,0,1-27.337,27.335h-28.97v-.065l-82.53-7.256v19.425H466.344c7.9,0,18.187-7.357,24.03-18.111,5.728-10.537,8.667-23.465,9.951-30.591A27.67,27.67,0,0,0,499.758,252.559Z" transform="translate(-280.421 -178.64)" fill="#ff5e4d"/>
          <path id="Path_12203" data-name="Path 12203" d="M420.134,206.166c1.56,6.384.235,12.19-2.958,12.97s-7.042-3.763-8.6-10.147-.235-12.192,2.955-12.972S418.574,199.782,420.134,206.166Z" transform="translate(-206.591 -195.931)" fill="#ffd98b"/>
          <path id="Path_12204" data-name="Path 12204" d="M415.69,201.848c.9,3.681.137,7.029-1.7,7.479s-4.061-2.169-4.961-5.85-.135-7.029,1.7-7.479S414.79,198.168,415.69,201.848Z" transform="translate(-205.789 -195.911)" fill="#fff" opacity="0.39"/>
          <rect id="Rectangle_17354" data-name="Rectangle 17354" width="26.27" height="5.68" rx="0.759" transform="translate(162.251 18.481) rotate(-13.724)" fill="#390028"/>
          <path id="Path_12205" data-name="Path 12205" d="M406.553,210.724l-3.128.765a2.463,2.463,0,0,1-2.974-1.806l-1.606-6.577,5.518-1.349Z" transform="translate(-216.592 -189.51)" fill="#390028"/>
          <path id="Path_12206" data-name="Path 12206" d="M393.2,211.828h0a3.194,3.194,0,0,1-3.861-2.346L389,208.1a3.194,3.194,0,0,1,2.346-3.861h0a3.194,3.194,0,0,1,3.861,2.346l.336,1.379A3.193,3.193,0,0,1,393.2,211.828Z" transform="translate(-227.541 -186.872)" fill="#390028"/>
          <g id="Group_16457" data-name="Group 16457" transform="translate(12.869 98.409)">
            <circle id="Ellipse_1282" data-name="Ellipse 1282" cx="31.053" cy="31.053" r="31.053" transform="translate(0 60.444) rotate(-76.718)" fill="#390028"/>
            <circle id="Ellipse_1283" data-name="Ellipse 1283" cx="17.557" cy="17.557" r="17.557" transform="translate(19.799 20.508)" fill="#fff"/>
          </g>
          <path id="Path_12207" data-name="Path 12207" d="M385.207,272.971H344.768a8.48,8.48,0,0,1-8.732-8.2h0a8.479,8.479,0,0,1,8.732-8.2h40.439a8.48,8.48,0,0,1,8.732,8.2h0A8.481,8.481,0,0,1,385.207,272.971Z" transform="translate(-285.81 -129.112)" fill="#f94a3d"/>
          <path id="Path_12208" data-name="Path 12208" d="M350.4,265.31a9.184,9.184,0,1,1-9.184-9.184A9.184,9.184,0,0,1,350.4,265.31Z" transform="translate(-290.226 -129.593)" fill="#390028"/>
          <circle id="Ellipse_1284" data-name="Ellipse 1284" cx="9.184" cy="9.184" r="9.184" transform="translate(237.354 127.146)" fill="#390028"/>
        </g>
        <g id="Group_16496" data-name="Group 16496" transform="translate(78.485)">
          <g id="Group_16487" data-name="Group 16487" transform="translate(0.695)">
            <g id="Group_16460" data-name="Group 16460" transform="translate(28.967 60.843)">
              <g id="Group_16459" data-name="Group 16459">
                <path id="Path_12209" data-name="Path 12209" d="M436.714,218.664a5.286,5.286,0,0,0-2.38-4.141l-3.756-2.447a4.852,4.852,0,0,0-5.188-.2L402.146,207.3l-19.734-25.819L368.86,202.615l18.258,21.6,30.9.185c3.563,1.709,7.544,3.922,8.589,3.962a6.343,6.343,0,0,0,6.558-5.755l.071-.769.721,1.286a1.468,1.468,0,0,0,.778.666,1.588,1.588,0,0,0,2.144-1.629Z" transform="translate(-357.784 -177.55)" fill="#f9a06e"/>
                <path id="Path_12210" data-name="Path 12210" d="M403.563,201.443l-21.273,16.625-18.7-19.461,26.151-19L404,197.928A2.507,2.507,0,0,1,403.563,201.443Z" transform="translate(-363.591 -179.611)" fill="#1dc34b"/>
              </g>
            </g>
            <g id="Group_16479" data-name="Group 16479" transform="translate(18.88)">
              <g id="Group_16478" data-name="Group 16478">
                <g id="Group_16463" data-name="Group 16463" transform="translate(27.563 12.142)">
                  <g id="Group_16462" data-name="Group 16462">
                    <g id="Group_16461" data-name="Group 16461">
                      <path id="Path_12211" data-name="Path 12211" d="M384.545,163.3a6.329,6.329,0,1,1-6.058-6.85A6.469,6.469,0,0,1,384.545,163.3Z" transform="translate(-371.904 -156.443)" fill="#f94a3d"/>
                    </g>
                  </g>
                </g>
                <g id="Group_16475" data-name="Group 16475" transform="translate(7.154 8.644)">
                  <path id="Path_12212" data-name="Path 12212" d="M391.016,162.236c-.078-3.868-3.87-7.1-8.469-7.214l-9.356-.24c-4.6-.116-8.265,2.924-8.187,6.79l.374,18.71-3.13,20.268a5.116,5.116,0,0,0,4.561,5.589l7.239,1.116a5.113,5.113,0,0,0,6.035-3.952l1.6-10.353c.189-.021.376-.034.568-.061,5.266-.78,8.515-5.427,7.237-10.178l1.169-15.652Z" transform="translate(-362.195 -154.778)" fill="#ffac79"/>
                  <g id="Group_16474" data-name="Group 16474" transform="translate(15.768 13.45)">
                    <g id="Group_16464" data-name="Group 16464" transform="translate(5.741 16.9)">
                      <path id="Path_12213" data-name="Path 12213" d="M372.677,169.543a2.058,2.058,0,0,1,2.2.715" transform="translate(-372.153 -168.942)" fill="#ffac79"/>
                      <path id="Path_12214" data-name="Path 12214" d="M375.15,171.059a.527.527,0,0,1-.427-.217,1.52,1.52,0,0,0-1.623-.521.526.526,0,0,1-.3-1.007,2.59,2.59,0,0,1,2.779.912.525.525,0,0,1-.427.832Z" transform="translate(-372.428 -169.217)" fill="#ff755f"/>
                    </g>
                    <g id="Group_16469" data-name="Group 16469" transform="translate(1.165)">
                      <g id="Group_16468" data-name="Group 16468">
                        <g id="Group_16467" data-name="Group 16467">
                          <g id="Group_16466" data-name="Group 16466">
                            <g id="Group_16465" data-name="Group 16465">
                              <path id="Path_12215" data-name="Path 12215" d="M370.669,163.723a3.264,3.264,0,0,0,1.35-.055c.473-.084.95-.156,1.366-.2s.9-.086,1.379-.114a3.25,3.25,0,0,0,1.324-.25c.341-.193.437-.643-.05-1.129a3.719,3.719,0,0,0-2.947-.765,3.614,3.614,0,0,0-2.663,1.408C370.081,163.2,370.289,163.613,370.669,163.723Z" transform="translate(-370.251 -161.177)" fill="#390028"/>
                            </g>
                          </g>
                        </g>
                      </g>
                    </g>
                    <g id="Group_16470" data-name="Group 16470" transform="translate(8.644 4.057)">
                      <path id="Path_12216" data-name="Path 12216" d="M375.089,163.357a1.72,1.72,0,0,0,1.751,1.686h0a1,1,0,0,1,1.02.982l0,.153a2.18,2.18,0,0,1-2.138,2.22l-1.665.032" transform="translate(-373.533 -162.831)" fill="#ffac79"/>
                      <path id="Path_12217" data-name="Path 12217" d="M374.335,169.23a.526.526,0,0,1-.011-1.051l1.667-.034a1.621,1.621,0,0,0,1.158-.5,1.637,1.637,0,0,0,.462-1.177l0-.149a.468.468,0,0,0-.145-.338.437.437,0,0,0-.336-.132,2.261,2.261,0,0,1-2.287-2.2.526.526,0,0,1,.515-.536h.011a.526.526,0,0,1,.526.515,1.2,1.2,0,0,0,1.192,1.171h.057a1.51,1.51,0,0,1,1.053.425,1.53,1.53,0,0,1,.467,1.072l0,.149a2.7,2.7,0,0,1-2.653,2.758l-1.665.034Z" transform="translate(-373.809 -163.107)" fill="#ff755f"/>
                    </g>
                    <g id="Group_16472" data-name="Group 16472" transform="translate(0 3.618)">
                      <g id="Group_16471" data-name="Group 16471" clip-path="url(#clip-path)">
                        <path id="Path_12218" data-name="Path 12218" d="M377.132,165.948a3.441,3.441,0,0,0-3.2-3.029,3.664,3.664,0,0,0-1.049.04,4.618,4.618,0,0,0-3.037,2.508,1.243,1.243,0,0,0,.906,1.829,19.5,19.5,0,0,0,5.758-.147.8.8,0,0,0,.666-.889C377.17,166.162,377.153,166.057,377.132,165.948Z" transform="translate(-369.697 -162.898)" fill="#fff"/>
                        <path id="Path_12219" data-name="Path 12219" d="M376.716,165.35a2.45,2.45,0,1,1-2.548-2.092A2.339,2.339,0,0,1,376.716,165.35Z" transform="translate(-367.334 -162.505)" fill="#390028"/>
                      </g>
                    </g>
                    <g id="Group_16473" data-name="Group 16473" transform="translate(2.645 11.962)">
                      <path id="Path_12220" data-name="Path 12220" d="M374.951,168.765s-3.565.553-3.746-1.648" transform="translate(-370.68 -166.593)" fill="#ffac79"/>
                      <path id="Path_12221" data-name="Path 12221" d="M374.287,169.632a4.223,4.223,0,0,1-2.537-.692,2.077,2.077,0,0,1-.792-1.505.524.524,0,0,1,.481-.568.538.538,0,0,1,.565.481,1.011,1.011,0,0,0,.4.763,4.274,4.274,0,0,0,2.745.408.53.53,0,0,1,.6.439.524.524,0,0,1-.439.6A6.908,6.908,0,0,1,374.287,169.632Z" transform="translate(-370.955 -166.868)" fill="#ff755f"/>
                    </g>
                  </g>
                  <path id="Path_12222" data-name="Path 12222" d="M366.922,171.037s2.541,4.6,9.482,4.173l-.715,3.864C375.33,179.056,366.521,179.042,366.922,171.037Z" transform="translate(-357.001 -136.861)" fill="#ff755f" opacity="0.41"/>
                </g>
                <g id="Group_16477" data-name="Group 16477">
                  <path id="Path_12223" data-name="Path 12223" d="M362.386,169.641l2.89,5.3,4.147-9.547c.53-1.4-2.064,1.236-2.73-.1l-.578-1.156-.288-.038A3.579,3.579,0,0,0,362.386,169.641Z" transform="translate(-355.508 -135.898)" fill="#390028"/>
                  <g id="Group_16476" data-name="Group 16476">
                    <path id="Path_12224" data-name="Path 12224" d="M367.116,184.71c6.512,1.877,7.792-7.294,9.3-10.466a7.542,7.542,0,0,1,9.76-3.643c5.488,2.375,8.959,1.892,12.68,1.656l.477-5.722a13.625,13.625,0,0,0-12.446-14.708L373.5,150.714a13.627,13.627,0,0,0-14.71,12.446s.074,8.095.183,11.944C359.21,183.375,366.828,184.626,367.116,184.71Z" transform="translate(-358.792 -150.666)" fill="#f94a3d"/>
                  </g>
                  <path id="Path_12225" data-name="Path 12225" d="M397.585,166.536a13.625,13.625,0,0,0-12.446-14.708l-13.384-1.114a13.587,13.587,0,0,0-11.378,4.62,13.565,13.565,0,0,1,9.375-2.752l13.386,1.114A13.625,13.625,0,0,1,395.584,168.4l-.332,3.975,1.856-.122Z" transform="translate(-357.045 -150.666)" fill="#ff7664"/>
                  <path id="Path_12226" data-name="Path 12226" d="M385.393,163.16l-11.137-.378a3.265,3.265,0,0,1-3.151-3.374h0l16.814.572-.027.845A2.419,2.419,0,0,1,385.393,163.16Z" transform="translate(-345.225 -141.033)" fill="#390028"/>
                  <path id="Path_12227" data-name="Path 12227" d="M364.625,167.9l-.122,0a3.532,3.532,0,1,1,3.651-3.41h0A3.537,3.537,0,0,1,364.625,167.9Zm0-5.488a1.959,1.959,0,0,0-1.953,1.89,1.955,1.955,0,1,0,2.02-1.888Z" transform="translate(-356.258 -139.457)" fill="#fff"/>
                </g>
              </g>
            </g>
            <g id="Group_16484" data-name="Group 16484" transform="translate(0 52.716)">
              <g id="Group_16483" data-name="Group 16483">
                <g id="Group_16482" data-name="Group 16482">
                  <g id="Group_16481" data-name="Group 16481">
                    <g id="Group_16480" data-name="Group 16480">
                      <path id="Path_12228" data-name="Path 12228" d="M408.051,190.461a19.06,19.06,0,0,0-1.116-3.208,17.626,17.626,0,0,0-10.836-9.226c-4.095-1.305-8.45-1.4-12.709-1.482-3.109-.061-6.174-1-9.272-.761-6.279.49-12.862,4.627-15.032,10.689a31.016,31.016,0,0,0-1.427,7.8c-1.335,15.383-7.191,42.949-7.832,58.373-.378,9.138,6.13,13.838,5.818,22.977l-.053-7.555,51.962,2.955.383-10.628q.653-18.057.841-36.142.107-9.043.124-18.094C408.912,200.986,409.335,195.517,408.051,190.461Z" transform="translate(-349.81 -175.745)" fill="#23aa49"/>
                    </g>
                  </g>
                </g>
              </g>
              <path id="Path_12229" data-name="Path 12229" d="M377.045,216.151h0c-3.567-2.989-15.767-14.792-18.685-24.18l-.881.681c-.048.4-.1.79-.149,1.2.875,8.187,8.032,16.453,12.4,20.8A6.677,6.677,0,0,0,377.045,216.151Z" transform="translate(-341.524 -157.863)" fill="#353535" opacity="0.27"/>
              <path id="Path_12230" data-name="Path 12230" d="M384.509,206.163l1.469-1.347L368.223,186.2Z" transform="translate(-329.519 -164.219)" fill="#353535" opacity="0.27"/>
            </g>
            <g id="Group_16486" data-name="Group 16486" transform="translate(37.251 95.165)">
              <g id="Group_16485" data-name="Group 16485">
                <path id="Path_12231" data-name="Path 12231" d="M429.523,216.285l-1.673-4.639-.015.021-.25-1.013a5.228,5.228,0,0,0-3.13-3.592l-4.177-1.671a4.848,4.848,0,0,0-5.125.818l-2.016-.017-21.59-2.373-6.535-7.878-17.48,14.817,5.68,6.2a12.846,12.846,0,0,0,9.9,4.16l28.146-.952c3.584.952,7.353,2.127,8.305,1.974a6.343,6.343,0,0,0,5.308-6.926l-.08-.767.536.626-.269.368,2,2.308a1.453,1.453,0,0,0,1.995.189A1.469,1.469,0,0,0,429.523,216.285Z" transform="translate(-367.532 -195.939)" fill="#ffac79"/>
              </g>
              <path id="Path_12232" data-name="Path 12232" d="M383.337,200.6l-8.356,1.345s6.886-3.336,6.825-3.153a12.1,12.1,0,0,0,1.532,1.894" transform="translate(-359.323 -192.805)" fill="#ff755f" opacity="0.41"/>
            </g>
          </g>
          <g id="Group_16495" data-name="Group 16495" transform="translate(0 131.137)">
            <g id="Group_16494" data-name="Group 16494">
              <g id="Group_16488" data-name="Group 16488">
                <path id="Path_12233" data-name="Path 12233" d="M434,216.344l-1.8-.069.023-.116-82.515-3.107-.219,9.852c-.324,14.721,10.96,26.767,27.524,25.681l46.022-1.2-2.253,46.489,16.867-1.614,12.663-59.027A16.5,16.5,0,0,0,434,216.344Z" transform="translate(-349.48 -213.052)" fill="#390028"/>
              </g>
              <g id="Group_16493" data-name="Group 16493" transform="translate(70.388 75.192)">
                <g id="Group_16492" data-name="Group 16492">
                  <g id="Group_16489" data-name="Group 16489" transform="translate(0.039)">
                    <path id="Path_12234" data-name="Path 12234" d="M419.3,269.053a11.137,11.137,0,0,0-10.575-11.668l-7.527-.37.359-7.326-17.668-.866-.906,18.447,17.668.868v0Z" transform="translate(-382.984 -248.823)" fill="#4d5dda"/>
                  </g>
                  <rect id="Rectangle_17355" data-name="Rectangle 17355" width="2.676" height="36.361" transform="translate(0 19.217) rotate(-87.187)" fill="#f7eee6"/>
                  <g id="Group_16491" data-name="Group 16491" transform="translate(13.034 4.887)">
                    <g id="Group_16490" data-name="Group 16490">
                      <path id="Path_12235" data-name="Path 12235" d="M392.5,255.426a.939.939,0,0,1-.809-1.4c1.017-1.827,2.014-2.792,2.955-2.871a1.6,1.6,0,0,1,1.425.692,1.52,1.52,0,0,1,.338,1.516c-.311.883-1.558,1.568-3.706,2.041h0A.975.975,0,0,1,392.5,255.426Zm2.276-3.227-.042,0c-.4.034-1.125.612-2,2.117,1.787-.425,2.565-.965,2.686-1.307.017-.05.071-.2-.17-.507C395.036,252.233,394.868,252.2,394.777,252.2Z" transform="translate(-386.519 -251.148)" fill="#eaeaea"/>
                      <path id="Path_12236" data-name="Path 12236" d="M391.638,255.508a2.843,2.843,0,0,1-1.879-.538,1.8,1.8,0,0,1-.574-1.68,1.708,1.708,0,0,1,.921-1.469c.961-.45,2.541.006,4.692,1.381a1.008,1.008,0,0,1-.277,1.822A10.921,10.921,0,0,1,391.638,255.508Zm-.694-2.808a.916.916,0,0,0-.385.071c-.067.032-.275.13-.332.635v0c-.053.477.1.664.212.761.513.433,1.93.374,3.8-.158A7.483,7.483,0,0,0,390.944,252.7Zm-1.238.65h0Z" transform="translate(-389.166 -250.591)" fill="#eaeaea"/>
                    </g>
                  </g>
                  <path id="Path_12237" data-name="Path 12237" d="M391.155,257.82a.524.524,0,0,1-.225-1c1.911-.914,1.785-3.506,1.782-3.531a.527.527,0,0,1,.494-.557.542.542,0,0,1,.557.5c.006.135.158,3.328-2.384,4.54A.5.5,0,0,1,391.155,257.82Z" transform="translate(-374.52 -244.514)" fill="#eaeaea"/>
                </g>
                <path id="Path_12238" data-name="Path 12238" d="M388,259.012c-.063,0-.122,0-.183,0a3.782,3.782,0,1,1,.183,0Zm0-6.506a2.732,2.732,0,0,0-2.724,2.594,2.727,2.727,0,0,0,2.59,2.857,2.726,2.726,0,1,0,.265-5.446C388.087,252.508,388.043,252.506,388,252.506Z" transform="translate(-381.583 -245.921)" fill="#eaeaea"/>
              </g>
            </g>
          </g>
        </g>
        <g id="Group_16497" data-name="Group 16497" transform="translate(152.844 87.621)">
          <path id="Path_12239" data-name="Path 12239" d="M387.364,194.223l6.264-1.53c5.768-1.408,11.471,1.654,12.736,6.842h0c1.268,5.188-2.382,10.533-8.15,11.942l-4.238,1.036a5.051,5.051,0,0,1-6.275-3.372l-2.773-11.353A3.06,3.06,0,0,1,387.364,194.223Z" transform="translate(-384.854 -192.35)" fill="#390028"/>
          <path id="Path_12240" data-name="Path 12240" d="M417.959,212.405a1.041,1.041,0,0,1-.908-.526L409.957,199.6a5.618,5.618,0,0,0-6.174-2.636l-10.767,2.63a1.051,1.051,0,1,1-.5-2.043l10.767-2.63a7.738,7.738,0,0,1,8.488,3.628l7.094,12.282a1.049,1.049,0,0,1-.91,1.577Z" transform="translate(-377.292 -189.758)" fill="#390028"/>
        </g>
      </g>
    </g>
    <g id="Group_16501" data-name="Group 16501" transform="translate(306.543 141.524)">
      <g id="Group_16500" data-name="Group 16500">
        <path id="Path_12241" data-name="Path 12241" d="M429.511,183.971a1.653,1.653,0,1,1-1.654-1.629A1.641,1.641,0,0,1,429.511,183.971Z" transform="translate(-159.143 -96.541)" fill="#f9b361"/>
        <path id="Path_12242" data-name="Path 12242" d="M437.724,160.205a1.653,1.653,0,1,1-1.652-1.631A1.641,1.641,0,0,1,437.724,160.205Z" transform="translate(-150.092 -122.734)" fill="#f9b361"/>
        <ellipse id="Ellipse_1285" data-name="Ellipse 1285" cx="1.653" cy="1.629" rx="1.653" ry="1.629" transform="translate(17.633 256.408)" fill="#f9b361"/>
        <path id="Path_12243" data-name="Path 12243" d="M454.149,238.5a1.652,1.652,0,1,1-1.652-1.629A1.641,1.641,0,0,1,454.149,238.5Z" transform="translate(-131.988 -36.454)" fill="#f9b361"/>
        <path id="Path_12244" data-name="Path 12244" d="M382.762,143.153a1.653,1.653,0,1,1-1.652-1.629A1.641,1.641,0,0,1,382.762,143.153Z" transform="translate(-210.661 -141.524)" fill="#f9b361"/>
        <path id="Path_12245" data-name="Path 12245" d="M302.461,159.854a1.653,1.653,0,1,1-1.652-1.629A1.641,1.641,0,0,1,302.461,159.854Z" transform="translate(-299.155 -123.119)" fill="#f9b361"/>
        <path id="Path_12246" data-name="Path 12246" d="M429.249,211.833a1.653,1.653,0,1,1-1.654-1.629A1.641,1.641,0,0,1,429.249,211.833Z" transform="translate(-159.432 -65.836)" fill="#f9b361"/>
        <path id="Path_12247" data-name="Path 12247" d="M449.133,186.475a.826.826,0,1,1-.826-.813A.821.821,0,0,1,449.133,186.475Z" transform="translate(-135.695 -92.882)" fill="#f9b361"/>
        <ellipse id="Ellipse_1286" data-name="Ellipse 1286" cx="0.827" cy="0.815" rx="0.827" ry="0.815" transform="translate(326.663 132.325)" fill="#f9b361"/>
        <ellipse id="Ellipse_1287" data-name="Ellipse 1287" cx="0.827" cy="0.815" rx="0.827" ry="0.815" transform="translate(27.827 210.41)" fill="#f9b361"/>
        <path id="Path_12248" data-name="Path 12248" d="M307.966,215.75a1.194,1.194,0,1,1-1.194-1.177A1.185,1.185,0,0,1,307.966,215.75Z" transform="translate(-292.077 -61.022)" fill="#f9b361"/>
      </g>
    </g>
  </g>
</svg>
