<svg xmlns="http://www.w3.org/2000/svg" width="343.461" height="278.861" viewBox="0 0 343.461 278.861">
  <g id="Group_16423" data-name="Group 16423" transform="translate(-87.204 -143.895)">
    <g id="Group_16392" data-name="Group 16392" transform="translate(102.115 166.177)">
      <g id="Group_16377" data-name="Group 16377">
        <g id="Group_16362" data-name="Group 16362" transform="translate(7.894 88.191)">
          <g id="Group_16355" data-name="Group 16355" transform="translate(5.883 10.371)">
            <rect id="Rectangle_17336" data-name="Rectangle 17336" width="5.413" height="38.489" rx="0.814" transform="matrix(0.783, -0.622, 0.622, 0.783, 0, 3.369)" fill="#f9b361"/>
            <path id="Path_11991" data-name="Path 11991" d="M125.171,230.379l-22.065-27.756a1.924,1.924,0,0,1-.482-1.281,1.6,1.6,0,0,1,1.289.64l22.065,27.753a1.6,1.6,0,0,1,.334,1.4A1.952,1.952,0,0,1,125.171,230.379Z" transform="translate(-98.732 -200.796)" fill="#fff6f7" opacity="0.19"/>
          </g>
          <g id="Group_16356" data-name="Group 16356" transform="translate(27.443 0)">
            <rect id="Rectangle_17337" data-name="Rectangle 17337" width="5.412" height="38.489" rx="0.814" transform="translate(0 2.319) rotate(-25.365)" fill="#f9b361"/>
            <path id="Path_11992" data-name="Path 11992" d="M128.477,229.785l-15.189-32.037a1.945,1.945,0,0,1-.18-1.359,1.6,1.6,0,0,1,1.109.917l15.191,32.037a1.606,1.606,0,0,1,.006,1.441A1.947,1.947,0,0,1,128.477,229.785Z" transform="translate(-108.68 -195.936)" fill="#fff6f7" opacity="0.19"/>
          </g>
          <g id="Group_16357" data-name="Group 16357" transform="translate(0.784 15.679)">
            <rect id="Rectangle_17338" data-name="Rectangle 17338" width="5.413" height="38.489" rx="0.814" transform="matrix(0.672, -0.74, 0.74, 0.672, 0, 4.007)" fill="#f9b361"/>
            <path id="Path_11993" data-name="Path 11993" d="M126.9,228.915l-26.249-23.836a1.946,1.946,0,0,1-.683-1.188,1.6,1.6,0,0,1,1.376.423l26.249,23.838a1.6,1.6,0,0,1,.554,1.329A1.942,1.942,0,0,1,126.9,228.915Z" transform="translate(-96.584 -203.296)" fill="#fff6f7" opacity="0.19"/>
          </g>
          <g id="Group_16358" data-name="Group 16358" transform="translate(15.992 4.201)">
            <rect id="Rectangle_17339" data-name="Rectangle 17339" width="5.413" height="38.489" rx="0.814" transform="translate(0 2.95) rotate(-33.024)" fill="#f9b361"/>
            <path id="Path_11994" data-name="Path 11994" d="M127.215,229.457l-19.324-29.729a1.937,1.937,0,0,1-.357-1.323,1.6,1.6,0,0,1,1.221.761l19.324,29.729a1.6,1.6,0,0,1,.2,1.426A1.95,1.95,0,0,1,127.215,229.457Z" transform="translate(-103.392 -197.895)" fill="#fff6f7" opacity="0.19"/>
          </g>
          <g id="Group_16359" data-name="Group 16359" transform="translate(0 22.984)">
            <rect id="Rectangle_17340" data-name="Rectangle 17340" width="5.413" height="38.488" rx="0.814" transform="matrix(0.674, -0.738, 0.738, 0.674, 0, 3.996)" fill="#f9b361"/>
            <path id="Path_11995" data-name="Path 11995" d="M126.46,232.451l-26.179-23.914a1.947,1.947,0,0,1-.678-1.19,1.606,1.606,0,0,1,1.374.427l26.179,23.916a1.6,1.6,0,0,1,.549,1.331A1.952,1.952,0,0,1,126.46,232.451Z" transform="translate(-96.207 -206.753)" fill="#fff6f7" opacity="0.19"/>
          </g>
          <g id="Group_16360" data-name="Group 16360" transform="translate(22.425 4.78)">
            <rect id="Rectangle_17341" data-name="Rectangle 17341" width="5.412" height="38.489" rx="0.814" transform="translate(0 2.804) rotate(-31.199)" fill="#f9b361"/>
            <path id="Path_11996" data-name="Path 11996" d="M129.3,230.334l-18.369-30.327a1.94,1.94,0,0,1-.315-1.333,1.6,1.6,0,0,1,1.2.8L130.182,229.8a1.6,1.6,0,0,1,.152,1.433A1.952,1.952,0,0,1,129.3,230.334Z" transform="translate(-106.4 -198.175)" fill="#fff6f7" opacity="0.19"/>
          </g>
          <g id="Group_16361" data-name="Group 16361" transform="translate(12.797 10.64)">
            <rect id="Rectangle_17342" data-name="Rectangle 17342" width="5.413" height="38.489" rx="0.814" transform="matrix(0.795, -0.606, 0.606, 0.795, 0, 3.281)" fill="#f9b361"/>
            <path id="Path_11997" data-name="Path 11997" d="M127.871,230.959l-21.492-28.2a1.931,1.931,0,0,1-.454-1.291,1.6,1.6,0,0,1,1.274.666l21.492,28.2a1.6,1.6,0,0,1,.3,1.407A1.936,1.936,0,0,1,127.871,230.959Z" transform="translate(-101.975 -200.926)" fill="#fff6f7" opacity="0.19"/>
          </g>
          <path id="Path_11998" data-name="Path 11998" d="M136.225,200.6a7.786,7.786,0,0,0-3.459,6.251,18.122,18.122,0,0,1-9.555,14.868,17.127,17.127,0,0,1-15.132.985,6.963,6.963,0,0,0-6.635.573l-.942.615a2.084,2.084,0,0,0-.53,3.155l10.191,10.773L126.391,255.5a1.61,1.61,0,0,0,2.282.23l8.67-7.78a15.611,15.611,0,0,1,2.992-2.113l11.633-6.312a1.894,1.894,0,0,0,.731-2.381l-6.734-17.56L139.429,201.5A2.114,2.114,0,0,0,136.225,200.6Z" transform="translate(-96.366 -191.688)" fill="#f94a3d"/>
          <path id="Path_11999" data-name="Path 11999" d="M115.676,222.667l-10.194-10.775a1.855,1.855,0,0,1-.5-1.308,7.07,7.07,0,0,0-3.537,1.139l-.942.615a2.084,2.084,0,0,0-.53,3.155l10.191,10.773,16.229,17.687a1.61,1.61,0,0,0,2.282.23l3.793-3.4a1.944,1.944,0,0,1-.564-.425Z" transform="translate(-96.366 -180.137)" fill="#ff7664"/>
        </g>
        <g id="Group_16373" data-name="Group 16373">
          <g id="Group_16372" data-name="Group 16372">
            <g id="Group_16371" data-name="Group 16371">
              <g id="Group_16370" data-name="Group 16370">
                <path id="Path_12000" data-name="Path 12000" d="M103.418,200.9s-8.7.123-9.143-6.876c-.175-2.749,1.314-5.31,2.62-7.377a88.891,88.891,0,0,1,6.8-9.6c9.031-10.627,17.469-15.614,29.226-20.476,3.117-1.289,10.91-3.244,14.64-1.338a6.778,6.778,0,0,1,2.895,3.144,6.336,6.336,0,0,1,.661,3.208c-.334,3.812-4.687,6.517-7.271,8.628-3.6,2.941-7.271,5.792-10.952,8.626q-12.336,9.5-24.89,18.705-1.236.91-2.474,1.817C105.075,199.695,103.995,200.893,103.418,200.9Z" transform="translate(-94.26 -154.44)" fill="#ffac79"/>
                <path id="Path_12001" data-name="Path 12001" d="M103.417,197.19q1.239-.907,2.474-1.817,12.539-9.227,24.89-18.705c3.681-2.836,7.354-5.684,10.952-8.626,2.584-2.111,6.937-4.816,7.271-8.628a5.985,5.985,0,0,0-.4-2.574c-3.958-1.285-10.891.482-13.788,1.68-11.755,4.862-20.193,9.849-29.224,20.476a88.9,88.9,0,0,0-6.8,9.6c-1.3,2.067-2.794,4.628-2.618,7.379a7.123,7.123,0,0,0,.351,1.777,13.443,13.443,0,0,0,4.784.976C101.883,198.72,102.963,197.521,103.417,197.19Z" transform="translate(-92.149 -152.267)" fill="#f97762" opacity="0.25"/>
                <path id="Path_12002" data-name="Path 12002" d="M98.36,195.529a1.766,1.766,0,0,0,.934,1.6c5.574,3.083,38.38,19.421,53.284,26.828a3.992,3.992,0,0,0,5.684-4.4c-3.628-17.308-12.013-56.819-13.765-60.684C142.28,154,99.095,173.456,98.36,195.529Z" transform="translate(-89.699 -150.34)" fill="#ffd98b"/>
                <g id="Group_16364" data-name="Group 16364" transform="translate(8.66 7.783)">
                  <path id="Path_12003" data-name="Path 12003" d="M98.478,175.064c.04-.237.078-.471.127-.708C98.556,174.593,98.518,174.827,98.478,175.064Z" transform="translate(-98.225 -140.054)" fill="#ffd98b"/>
                  <path id="Path_12004" data-name="Path 12004" d="M98.408,175.567c.027-.241.053-.482.089-.723C98.461,175.085,98.435,175.326,98.408,175.567Z" transform="translate(-98.303 -139.511)" fill="#ffd98b"/>
                  <path id="Path_12005" data-name="Path 12005" d="M98.574,174.581c.053-.237.106-.473.169-.71C98.68,174.108,98.627,174.344,98.574,174.581Z" transform="translate(-98.118 -140.594)" fill="#ffd98b"/>
                  <path id="Path_12006" data-name="Path 12006" d="M98.694,174.12c.068-.245.135-.49.213-.733C98.829,173.63,98.762,173.875,98.694,174.12Z" transform="translate(-97.985 -141.133)" fill="#ffd98b"/>
                  <path id="Path_12007" data-name="Path 12007" d="M98.359,176.371c.011-.347.034-.693.066-1.038C98.393,175.678,98.37,176.025,98.359,176.371Z" transform="translate(-98.358 -138.965)" fill="#ffd98b"/>
                  <path id="Path_12008" data-name="Path 12008" d="M98.836,173.672c.087-.256.171-.511.268-.765C99.007,173.161,98.923,173.416,98.836,173.672Z" transform="translate(-97.827 -141.667)" fill="#ffd98b"/>
                  <path id="Path_12009" data-name="Path 12009" d="M99.4,172.331c.139-.283.281-.566.431-.847C99.685,171.765,99.543,172.048,99.4,172.331Z" transform="translate(-97.195 -143.251)" fill="#ffd98b"/>
                  <path id="Path_12010" data-name="Path 12010" d="M100.46,170.57c.211-.311.429-.621.653-.928C100.889,169.948,100.671,170.259,100.46,170.57Z" transform="translate(-96.019 -145.301)" fill="#ffd98b"/>
                  <path id="Path_12011" data-name="Path 12011" d="M99.891,171.452q.263-.45.545-.9Q100.154,171,99.891,171.452Z" transform="translate(-96.653 -144.286)" fill="#ffd98b"/>
                  <path id="Path_12012" data-name="Path 12012" d="M100.166,171.009q.292-.46.6-.913Q100.457,170.549,100.166,171.009Z" transform="translate(-96.346 -144.796)" fill="#ffd98b"/>
                  <path id="Path_12013" data-name="Path 12013" d="M99.544,192.357a1.777,1.777,0,0,0,.934,1.606c5.574,3.083,38.38,19.419,53.284,26.826a3.913,3.913,0,0,0,3.225.146,4.008,4.008,0,0,0-.044-1.369c-3.628-17.308-12.013-56.819-13.765-60.684-1.76-3.882-29.4,7.609-41.036,23.572.691-.947,1.439-1.881,2.234-2.794C101.522,183.675,99.69,187.964,99.544,192.357Z" transform="translate(-97.039 -158.123)" fill="#f9b361"/>
                  <path id="Path_12014" data-name="Path 12014" d="M124.439,189.431c-.057-.015-.114-.03-.173-.049C124.325,189.4,124.382,189.416,124.439,189.431Z" transform="translate(-69.521 -123.329)" fill="#ffd98b"/>
                  <path id="Path_12015" data-name="Path 12015" d="M99.193,172.775c.12-.275.243-.547.374-.82C99.436,172.228,99.313,172.5,99.193,172.775Z" transform="translate(-97.429 -142.727)" fill="#ffd98b"/>
                  <path id="Path_12016" data-name="Path 12016" d="M99.636,171.894q.238-.441.49-.877Q99.873,171.454,99.636,171.894Z" transform="translate(-96.936 -143.771)" fill="#ffd98b"/>
                  <path id="Path_12017" data-name="Path 12017" d="M99,173.223c.1-.264.207-.53.319-.794C99.21,172.693,99.1,172.959,99,173.223Z" transform="translate(-97.641 -142.199)" fill="#ffd98b"/>
                  <path id="Path_12018" data-name="Path 12018" d="M126.239,189.013c-.091.078-.182.152-.277.222C126.057,189.165,126.148,189.091,126.239,189.013Z" transform="translate(-67.633 -123.739)" fill="#ffd98b"/>
                  <path id="Path_12019" data-name="Path 12019" d="M125.464,189.413c-.07.019-.142.032-.211.046C125.323,189.445,125.395,189.432,125.464,189.413Z" transform="translate(-68.422 -123.294)" fill="#ffd98b"/>
                  <path id="Path_12020" data-name="Path 12020" d="M124.98,189.482c-.07,0-.142,0-.213-.006C124.839,189.48,124.911,189.482,124.98,189.482Z" transform="translate(-68.963 -123.224)" fill="#ffd98b"/>
                  <path id="Path_12021" data-name="Path 12021" d="M126.056,189.156c-.093.061-.188.125-.285.18C125.868,189.281,125.961,189.217,126.056,189.156Z" transform="translate(-67.846 -123.58)" fill="#ffd98b"/>
                  <path id="Path_12022" data-name="Path 12022" d="M125.229,189.462c-.072.011-.144.015-.216.021C125.085,189.477,125.157,189.473,125.229,189.462Z" transform="translate(-68.689 -123.239)" fill="#ffd98b"/>
                  <path id="Path_12023" data-name="Path 12023" d="M126.4,188.849a3.581,3.581,0,0,1-.268.268A3.223,3.223,0,0,0,126.4,188.849Z" transform="translate(-67.441 -123.922)" fill="#ffd98b"/>
                  <path id="Path_12024" data-name="Path 12024" d="M127.222,187.848a3.939,3.939,0,0,1-.938,2.06A3.915,3.915,0,0,0,127.222,187.848Z" transform="translate(-67.275 -125.036)" fill="#ffd98b"/>
                  <path id="Path_12025" data-name="Path 12025" d="M125.949,189.275a4.133,4.133,0,0,1-.467.2A4.133,4.133,0,0,0,125.949,189.275Z" transform="translate(-68.167 -123.448)" fill="#ffd98b"/>
                  <path id="Path_12026" data-name="Path 12026" d="M124.722,189.479c-.068-.011-.135-.019-.2-.032C124.587,189.46,124.654,189.468,124.722,189.479Z" transform="translate(-69.241 -123.256)" fill="#ffd98b"/>
                  <g id="Group_16363" data-name="Group 16363" transform="translate(0 22.997)">
                    <path id="Path_12027" data-name="Path 12027" d="M98.425,175.4c0-.044.011-.089.017-.133-.04.389-.07.78-.082,1.171a1.641,1.641,0,0,0,.055.49,1.641,1.641,0,0,1-.055-.49C98.37,176.1,98.393,175.749,98.425,175.4Z" transform="translate(-98.358 -162.032)" fill="#ffd98b"/>
                    <path id="Path_12028" data-name="Path 12028" d="M99.408,172.319c.135-.279.275-.558.423-.835C99.683,171.761,99.543,172.04,99.408,172.319Z" transform="translate(-97.19 -166.248)" fill="#ffd98b"/>
                    <path id="Path_12029" data-name="Path 12029" d="M98.614,176.446a1.874,1.874,0,0,0,.4.292c.213.118.467.258.761.412-.294-.154-.547-.294-.761-.412A1.874,1.874,0,0,1,98.614,176.446Z" transform="translate(-98.074 -160.725)" fill="#ffd98b"/>
                    <path id="Path_12030" data-name="Path 12030" d="M126.284,189.908a3.922,3.922,0,0,0,.938-2.06h0A3.946,3.946,0,0,1,126.284,189.908Z" transform="translate(-67.275 -148.033)" fill="#ffd98b"/>
                    <path id="Path_12031" data-name="Path 12031" d="M125.74,189.367a3.644,3.644,0,0,0,.349-.211c-.093.063-.186.125-.283.18Z" transform="translate(-67.88 -146.577)" fill="#ffd98b"/>
                    <path id="Path_12032" data-name="Path 12032" d="M125.369,189.476c-.074.017-.146.03-.22.042a3.688,3.688,0,0,0,.524-.12c-.032.011-.061.023-.093.032C125.51,189.449,125.438,189.461,125.369,189.476Z" transform="translate(-68.538 -146.308)" fill="#ffd98b"/>
                    <path id="Path_12033" data-name="Path 12033" d="M100.166,171.007q.292-.456.6-.911Q100.457,170.549,100.166,171.007Z" transform="translate(-96.346 -167.793)" fill="#ffd98b"/>
                    <path id="Path_12034" data-name="Path 12034" d="M126.4,188.849a3.581,3.581,0,0,1-.268.268A3.223,3.223,0,0,0,126.4,188.849Z" transform="translate(-67.441 -146.919)" fill="#ffd98b"/>
                    <path id="Path_12035" data-name="Path 12035" d="M98.508,174.811c-.04.26-.07.518-.1.778.025-.237.051-.473.087-.708Z" transform="translate(-98.302 -162.544)" fill="#ffd98b"/>
                    <path id="Path_12036" data-name="Path 12036" d="M98.681,175.119c.053-.237.106-.473.169-.71.025-.1.057-.194.085-.289.068-.245.135-.488.213-.731a20.4,20.4,0,0,0-.67,2.747c.04-.235.078-.467.127-.7C98.628,175.328,98.655,175.224,98.681,175.119Z" transform="translate(-98.225 -164.128)" fill="#ffd98b"/>
                    <path id="Path_12037" data-name="Path 12037" d="M124.98,189.5c-.07,0-.142,0-.213-.006a3.7,3.7,0,0,0,.735-.03c-.072.011-.144.015-.216.021C125.185,189.492,125.084,189.5,124.98,189.5Z" transform="translate(-68.963 -146.236)" fill="#ffd98b"/>
                    <path id="Path_12038" data-name="Path 12038" d="M100.461,170.565c.211-.311.429-.617.651-.923C100.89,169.948,100.672,170.255,100.461,170.565Z" transform="translate(-96.018 -168.298)" fill="#ffd98b"/>
                    <path id="Path_12039" data-name="Path 12039" d="M125.949,189.275a4.133,4.133,0,0,1-.467.2A4.133,4.133,0,0,0,125.949,189.275Z" transform="translate(-68.167 -146.445)" fill="#ffd98b"/>
                    <path id="Path_12040" data-name="Path 12040" d="M100.47,170.529q-.3.472-.579.949.263-.45.545-.9Z" transform="translate(-96.653 -167.311)" fill="#ffd98b"/>
                    <path id="Path_12041" data-name="Path 12041" d="M100.773,170.339c.328-.448.67-.894,1.021-1.333C101.443,169.446,101.1,169.891,100.773,170.339Z" transform="translate(-95.671 -169.006)" fill="#ffd98b"/>
                    <path id="Path_12042" data-name="Path 12042" d="M126.239,189.013c-.091.078-.182.152-.277.222C126.057,189.165,126.148,189.091,126.239,189.013Z" transform="translate(-67.633 -146.736)" fill="#ffd98b"/>
                    <path id="Path_12043" data-name="Path 12043" d="M100.166,170.983q-.276.469-.528.945c.156-.292.317-.583.486-.873Z" transform="translate(-96.934 -166.805)" fill="#ffd98b"/>
                    <path id="Path_12044" data-name="Path 12044" d="M124.721,189.479c-.068-.011-.135-.019-.2-.032C124.586,189.46,124.653,189.468,124.721,189.479Z" transform="translate(-69.24 -146.253)" fill="#ffd98b"/>
                    <path id="Path_12045" data-name="Path 12045" d="M99.116,172.907c-.1.279-.2.558-.292.839l.025-.074C98.936,173.416,99.021,173.161,99.116,172.907Z" transform="translate(-97.84 -164.664)" fill="#ffd98b"/>
                    <path id="Path_12046" data-name="Path 12046" d="M124.439,189.431c-.057-.015-.114-.03-.173-.049C124.325,189.4,124.382,189.416,124.439,189.431Z" transform="translate(-69.521 -146.325)" fill="#ffd98b"/>
                    <path id="Path_12047" data-name="Path 12047" d="M99.358,172.957c.025-.061.055-.12.082-.182.12-.273.241-.547.372-.82q-.469.976-.841,1.967c.021-.057.044-.114.068-.171C99.14,173.487,99.246,173.221,99.358,172.957Z" transform="translate(-97.677 -165.723)" fill="#ffd98b"/>
                  </g>
                </g>
                <g id="Group_16365" data-name="Group 16365" transform="translate(29.755 18.069)">
                  <path id="Path_12048" data-name="Path 12048" d="M128.4,172.228a10.043,10.043,0,1,1-10.817-9.2A10.043,10.043,0,0,1,128.4,172.228Z" transform="translate(-108.342 -162.99)" fill="#ff5e4d"/>
                  <path id="Path_12049" data-name="Path 12049" d="M124.231,170.748a7.323,7.323,0,1,1-7.888-6.711A7.322,7.322,0,0,1,124.231,170.748Z" transform="translate(-106.932 -161.853)" fill="#f94a3d"/>
                </g>
                <g id="Group_16367" data-name="Group 16367" transform="translate(15.781 11.901)" opacity="0.23">
                  <g id="Group_16366" data-name="Group 16366">
                    <path id="Path_12050" data-name="Path 12050" d="M123.637,183.628a1.046,1.046,0,1,0,.309-1.447A1.045,1.045,0,0,0,123.637,183.628Z" transform="translate(-77.53 -135.649)" fill="#ffa35d"/>
                    <path id="Path_12051" data-name="Path 12051" d="M103.943,171.518a1.047,1.047,0,1,0,.309-1.448A1.047,1.047,0,0,0,103.943,171.518Z" transform="translate(-99.451 -149.129)" fill="#ffa35d"/>
                    <path id="Path_12052" data-name="Path 12052" d="M118.262,179.032a1.047,1.047,0,1,0,.311-1.447A1.048,1.048,0,0,0,118.262,179.032Z" transform="translate(-83.511 -140.765)" fill="#ffa35d"/>
                    <path id="Path_12053" data-name="Path 12053" d="M123.273,184.98a.708.708,0,1,0,.209-.98A.709.709,0,0,0,123.273,184.98Z" transform="translate(-77.874 -133.564)" fill="#ffa35d"/>
                    <path id="Path_12054" data-name="Path 12054" d="M117.113,180.339a.274.274,0,1,0,.08-.38A.274.274,0,0,0,117.113,180.339Z" transform="translate(-84.653 -137.985)" fill="#ffa35d"/>
                    <path id="Path_12055" data-name="Path 12055" d="M118.173,165.559a.309.309,0,1,0,.091-.427A.308.308,0,0,0,118.173,165.559Z" transform="translate(-83.479 -154.494)" fill="#ffa35d"/>
                    <path id="Path_12056" data-name="Path 12056" d="M105.667,177.272a.307.307,0,1,0,.091-.427A.305.305,0,0,0,105.667,177.272Z" transform="translate(-97.399 -141.455)" fill="#ffa35d"/>
                    <path id="Path_12057" data-name="Path 12057" d="M117.984,184.138a.308.308,0,1,0,.091-.427A.307.307,0,0,0,117.984,184.138Z" transform="translate(-83.689 -133.814)" fill="#ffa35d"/>
                    <path id="Path_12058" data-name="Path 12058" d="M107.714,166.785a.308.308,0,1,0,.091-.425A.306.306,0,0,0,107.714,166.785Z" transform="translate(-95.121 -153.128)" fill="#ffa35d"/>
                    <path id="Path_12059" data-name="Path 12059" d="M101.778,172.548a.309.309,0,0,0,.518-.336.309.309,0,1,0-.518.336Z" transform="translate(-101.728 -146.715)" fill="#ffa35d"/>
                    <path id="Path_12060" data-name="Path 12060" d="M119.6,160.831a.308.308,0,1,0,.091-.427A.305.305,0,0,0,119.6,160.831Z" transform="translate(-81.892 -159.757)" fill="#ffa35d"/>
                    <path id="Path_12061" data-name="Path 12061" d="M121.437,183.94a.708.708,0,1,0,.209-.978A.707.707,0,0,0,121.437,183.94Z" transform="translate(-79.917 -134.72)" fill="#ffa35d"/>
                    <path id="Path_12062" data-name="Path 12062" d="M105.221,174.053a.354.354,0,1,0,.1-.49A.356.356,0,0,0,105.221,174.053Z" transform="translate(-97.904 -145.118)" fill="#ffa35d"/>
                    <path id="Path_12063" data-name="Path 12063" d="M116.462,161.165a.707.707,0,1,0,.209-.978A.707.707,0,0,0,116.462,161.165Z" transform="translate(-85.455 -160.072)" fill="#ffa35d"/>
                  </g>
                </g>
                <g id="Group_16368" data-name="Group 16368" transform="translate(55.871 40.192)">
                  <path id="Path_12064" data-name="Path 12064" d="M120.727,182.037a8.092,8.092,0,0,0,8.714,7.415,7.971,7.971,0,0,0,1.158-.188c-1.065-5.006-2.231-10.445-3.4-15.8A8.089,8.089,0,0,0,120.727,182.037Z" transform="translate(-120.701 -173.46)" fill="#ff5e4d"/>
                  <path id="Path_12065" data-name="Path 12065" d="M121.665,180.462a5.613,5.613,0,0,0,6.912,5.061c-.744-3.5-1.562-7.313-2.379-11.066A5.664,5.664,0,0,0,121.665,180.462Z" transform="translate(-119.648 -172.35)" fill="#f94a3d"/>
                </g>
                <path id="Path_12066" data-name="Path 12066" d="M106.6,177.092a2.129,2.129,0,0,1-.917-.211,2.938,2.938,0,0,1-1.338-3.755,1.993,1.993,0,0,1,2.722-.97,2.809,2.809,0,0,1,1.405,1.617,2.444,2.444,0,0,1-1.217,3.208h0A1.924,1.924,0,0,1,106.6,177.092Zm-.448-3.563a.343.343,0,0,0-.12.019.477.477,0,0,0-.254.258,1.371,1.371,0,0,0,.585,1.642.454.454,0,0,0,.359.04c.285-.1.454-.63.256-1.185a1.237,1.237,0,0,0-.59-.714A.574.574,0,0,0,106.151,173.529Z" transform="translate(-83.307 -134.956)" fill="#390028"/>
                <path id="Path_12067" data-name="Path 12067" d="M118.255,179.415a2.578,2.578,0,0,1-2.331-1.6,2.187,2.187,0,0,1,.066-1.87,1.967,1.967,0,0,1,1.152-.936,2.516,2.516,0,0,1,2.975,1.5,2.05,2.05,0,0,1-1.219,2.808h0A2.153,2.153,0,0,1,118.255,179.415Zm-.461-3.117a.369.369,0,0,0-.12.019.445.445,0,0,0-.251.224.955.955,0,0,0,0,.809c.2.5.664.75.947.661s.456-.552.258-1.035A1.024,1.024,0,0,0,117.795,176.3Z" transform="translate(-70.344 -131.65)" fill="#390028"/>
                <path id="Path_12068" data-name="Path 12068" d="M122.591,185.833a1.832,1.832,0,0,1-.826-.2,1.764,1.764,0,0,1-.9-1.008,1.372,1.372,0,0,1,.883-1.758,1.764,1.764,0,0,1,1.344.118,1.584,1.584,0,0,1,.824,2.073h0a1.4,1.4,0,0,1-1,.742A1.578,1.578,0,0,1,122.591,185.833Z" transform="translate(-64.726 -122.889)" fill="#390028"/>
                <path id="Path_12069" data-name="Path 12069" d="M121.1,166.043a2.933,2.933,0,0,1-1.321-.319,2.253,2.253,0,1,1,2-3.975,2.855,2.855,0,0,1,1.325,1.325,2.091,2.091,0,0,1,.013,1.836h0A2.195,2.195,0,0,1,121.1,166.043Zm-.653-3.032a.637.637,0,0,0-.587.262c-.137.27.106.771.632,1.035s1.067.161,1.207-.11h0a.544.544,0,0,0-.032-.452,1.328,1.328,0,0,0-.6-.583A1.41,1.41,0,0,0,120.451,163.011Z" transform="translate(-67.565 -146.661)" fill="#390028"/>
                <g id="Group_16369" data-name="Group 16369" transform="translate(25.747 48.785)">
                  <path id="Path_12070" data-name="Path 12070" d="M114.039,177.555a8.608,8.608,0,0,0-7.594,6.261c4.693,2.365,9.919,4.983,15.1,7.571a8.6,8.6,0,0,0-7.508-13.832Z" transform="translate(-106.445 -177.527)" fill="#ff5e4d"/>
                  <path id="Path_12071" data-name="Path 12071" d="M113.225,178.6a6.611,6.611,0,0,0-5.832,4.807c3.6,1.817,7.62,3.829,11.6,5.817a6.607,6.607,0,0,0-5.767-10.625Z" transform="translate(-105.39 -176.352)" fill="#f94a3d"/>
                </g>
              </g>
            </g>
          </g>
        </g>
        <g id="Group_16376" data-name="Group 16376" transform="translate(8.494 167.633)">
          <path id="Rectangle_17343" data-name="Rectangle 17343" d="M0,0H33.067a0,0,0,0,1,0,0V16.934a2.875,2.875,0,0,1-2.875,2.875H2.607A2.607,2.607,0,0,1,0,17.2V0A0,0,0,0,1,0,0Z" transform="translate(7.843 1.627) rotate(23.324)" fill="#390028"/>
          <path id="Path_12072" data-name="Path 12072" d="M102.063,235.467c1.194-2.766,8.953-2.077,17.334,1.536s14.206,8.782,13.015,11.548-8.953,2.077-17.332-1.536S100.872,238.231,102.063,235.467Z" transform="translate(-94.241 -233.77)" fill="#f8f8ee"/>
          <path id="Path_12073" data-name="Path 12073" d="M107.144,236.758c.357-.828,2.682-.621,5.192.461s4.256,2.631,3.9,3.459-2.682.621-5.192-.461S106.787,237.587,107.144,236.758Z" transform="translate(-88.464 -231.009)" fill="#f94a3d"/>
          <path id="Path_12074" data-name="Path 12074" d="M112.772,238.139a.264.264,0,0,1-.254-.192,2.729,2.729,0,0,0-.894-1.54,1.143,1.143,0,0,0-.86-.169.792.792,0,0,0-.526.349.281.281,0,0,1-.281.12.263.263,0,0,1-.207-.228,2,2,0,0,0-.169-.706c-.078-.144-.243-.281-.389-.251-.127.021-.258.135-.41.351a3.581,3.581,0,0,0-.518,1.143.264.264,0,1,1-.511-.129,4.078,4.078,0,0,1,.6-1.314,1.21,1.21,0,0,1,.761-.573.934.934,0,0,1,.934.516,1.617,1.617,0,0,1,.148.389,1.463,1.463,0,0,1,.463-.184,1.672,1.672,0,0,1,1.272.254,3.245,3.245,0,0,1,1.1,1.828.264.264,0,0,1-.182.328A.3.3,0,0,1,112.772,238.139Z" transform="translate(-87.744 -232.413)" fill="#390028" opacity="0.11"/>
          <g id="Group_16374" data-name="Group 16374" transform="translate(11.507 1.789)" opacity="0.11">
            <path id="Path_12075" data-name="Path 12075" d="M106.233,235.7a.549.549,0,0,1-.5-.757.545.545,0,1,1,.706.716A.571.571,0,0,1,106.233,235.7Zm.015-.539Zm0-.008Z" transform="translate(-101.539 -234.617)" fill="#390028"/>
            <path id="Path_12076" data-name="Path 12076" d="M104.268,235.785a.5.5,0,0,1-.213-.044.531.531,0,0,1-.292-.3.547.547,0,0,1,.008-.416.539.539,0,0,1,.712-.281.535.535,0,0,1,.292.3.541.541,0,0,1-.3.7A.517.517,0,0,1,104.268,235.785Zm.015-.539Zm0-.008Z" transform="translate(-103.725 -234.526)" fill="#390028"/>
            <path id="Path_12077" data-name="Path 12077" d="M105.777,237.2a.815.815,0,0,1-.33-.068.824.824,0,1,1,.632.011A.834.834,0,0,1,105.777,237.2Zm0-1.114a.3.3,0,0,0-.273.178.288.288,0,0,0,0,.222.306.306,0,0,0,.158.163.315.315,0,0,0,.228,0,.294.294,0,0,0,0-.543A.306.306,0,0,0,105.774,236.087Z" transform="translate(-102.363 -233.568)" fill="#390028"/>
          </g>
          <g id="Group_16375" data-name="Group 16375" transform="translate(28.526 11.124)" opacity="0.11">
            <path id="Path_12078" data-name="Path 12078" d="M114.291,240.12a.541.541,0,0,1-.22-.047.531.531,0,0,1-.287-.3.523.523,0,0,1,.008-.414.537.537,0,0,1,.3-.289.546.546,0,0,1,.416.008.542.542,0,0,1-.015,1A.551.551,0,0,1,114.291,240.12Zm.013-.539Zm0-.008v0Z" transform="translate(-109.592 -239.034)" fill="#390028"/>
            <path id="Path_12079" data-name="Path 12079" d="M112.323,240.2a.545.545,0,0,1-.213-.044.535.535,0,0,1-.292-.3.543.543,0,0,1,.721-.7.548.548,0,0,1,.285.714l0,0A.546.546,0,0,1,112.323,240.2Zm.258-.431h0Zm-.254-.127,0,0Z" transform="translate(-111.78 -238.943)" fill="#390028"/>
            <path id="Path_12080" data-name="Path 12080" d="M113.826,241.62a.815.815,0,0,1-.323-.068.823.823,0,1,1,.323.068Zm0-1.114a.293.293,0,1,0,.271.408.291.291,0,0,0-.152-.385A.288.288,0,0,0,113.826,240.506Z" transform="translate(-110.415 -237.986)" fill="#390028"/>
          </g>
        </g>
      </g>
      <g id="Group_16391" data-name="Group 16391" transform="translate(212.385 8.17)">
        <g id="Group_16386" data-name="Group 16386">
          <path id="Path_12081" data-name="Path 12081" d="M264.516,199.487l-67.028-24.635a3.16,3.16,0,0,1-1.876-4.057h0a3.16,3.16,0,0,1,4.055-1.876l67.03,24.637a3.16,3.16,0,0,1,1.876,4.055h0A3.16,3.16,0,0,1,264.516,199.487Z" transform="translate(-194.048 -146.71)" fill="#470b1b"/>
          <path id="Path_12082" data-name="Path 12082" d="M263.369,195.591l-13.678-5.027a1.6,1.6,0,0,0-.833-.082l-5.906,1.09a1.667,1.667,0,0,1-1.447-.478l-4.959-5.192a1.636,1.636,0,0,0-.615-.4l-37.524-13.79a1.18,1.18,0,0,1-.888-1.371l1.175-3.2a1.177,1.177,0,0,1,1.564-.471l64.963,23.876a1.178,1.178,0,0,1,.887,1.371l-1.175,3.2A1.179,1.179,0,0,1,263.369,195.591Z" transform="translate(-191.761 -149.107)" fill="#ffd98b"/>
          <rect id="Rectangle_17344" data-name="Rectangle 17344" width="69.312" height="4.694" rx="0.745" transform="translate(4.43 28.216) rotate(20.18)" fill="#f94a3d"/>
          <path id="Path_12083" data-name="Path 12083" d="M260.939,196.533,197.187,173.1a.7.7,0,0,1-.412-.894h0a.7.7,0,0,1,.892-.412l63.752,23.432a.693.693,0,0,1,.412.892h0A.7.7,0,0,1,260.939,196.533Z" transform="translate(-192.585 -143.34)" fill="#ec6565" opacity="0.74"/>
          <g id="Group_16380" data-name="Group 16380" transform="translate(0 31.648)">
            <g id="Group_16379" data-name="Group 16379">
              <g id="Group_16378" data-name="Group 16378">
                <path id="Path_12084" data-name="Path 12084" d="M248.773,206.951,202.79,189.968c-5.76-2.128-9.188-7.252-7.656-11.445l1.912-5.24,66.839,24.689-1.91,5.236C260.444,207.4,254.534,209.079,248.773,206.951Z" transform="translate(-194.769 -173.283)" fill="#ffac79"/>
              </g>
            </g>
            <path id="Path_12085" data-name="Path 12085" d="M263.886,197.972l-3.453-1.276c-2.035,3.47-7.442,4.729-12.734,2.775L209.062,185.2c-5.291-1.955-8.6-6.437-7.92-10.4l-4.1-1.513-1.912,5.24c-1.532,4.192,1.9,9.317,7.656,11.445l45.983,16.983c5.76,2.128,11.671.452,13.2-3.742Z" transform="translate(-194.769 -173.283)" fill="#f97762" opacity="0.25"/>
          </g>
          <g id="Group_16385" data-name="Group 16385" transform="translate(5.151)">
            <g id="Group_16381" data-name="Group 16381">
              <path id="Path_12086" data-name="Path 12086" d="M268.243,201.5,197.207,175.4h0c5.082-13.824,21.131-20.645,35.851-15.235l17.733,6.519c14.72,5.41,22.532,21,17.452,34.824Z" transform="translate(-197.207 -158.306)" fill="#ffb6af"/>
              <path id="Path_12087" data-name="Path 12087" d="M268.243,201.5,197.207,175.4h0c5.082-13.824,21.131-20.645,35.851-15.235l17.733,6.519c14.72,5.41,22.532,21,17.452,34.824Z" transform="translate(-197.207 -158.306)" fill="#fff6f7" opacity="0.08"/>
            </g>
            <g id="Group_16382" data-name="Group 16382">
              <path id="Path_12088" data-name="Path 12088" d="M268.243,201.5,197.207,175.4h0c5.082-13.824,21.131-20.645,35.851-15.235l17.733,6.519c14.72,5.41,22.532,21,17.452,34.824Z" transform="translate(-197.207 -158.306)" fill="#ffac79"/>
            </g>
            <path id="Path_12089" data-name="Path 12089" d="M260.526,172.537l.123.167c5.376,7.449-2.324,17.357-10.946,14.187l-31.9-11.723c-6.291-2.312-7.165-11-1.352-14.329a22.161,22.161,0,0,1,6.851-2.527c-11.48-.228-22.128,6.295-26.095,17.084L268.243,201.5C272.04,191.173,268.634,179.855,260.526,172.537Z" transform="translate(-197.207 -158.306)" fill="#f97762" opacity="0.25"/>
            <g id="Group_16384" data-name="Group 16384" transform="translate(28.029 3.389)">
              <g id="Group_16383" data-name="Group 16383">
                <path id="Path_12090" data-name="Path 12090" d="M218.684,165.278a4.534,4.534,0,0,1-1.23-.2c-.473-.139-2-.668-1.733-1.572s1.836-.52,2.31-.38,2,.666,1.731,1.572c-.076.26-.319.571-1.04.581Z" transform="translate(-204.662 -156.556)" fill="#f8f8ee"/>
                <path id="Path_12091" data-name="Path 12091" d="M223.368,168.58a4.525,4.525,0,0,1-1.23-.2c-.475-.139-2-.668-1.733-1.574.076-.258.319-.568,1.042-.579a5.221,5.221,0,0,1,1.266.2c.473.139,2,.666,1.733,1.572-.076.26-.321.568-1.04.579Z" transform="translate(-199.449 -152.877)" fill="#f8f8ee"/>
                <path id="Path_12092" data-name="Path 12092" d="M223.043,165.388a4.716,4.716,0,0,1-1.236-.2c-.473-.139-2-.668-1.731-1.572a.726.726,0,0,1,.361-.435,3.123,3.123,0,0,1,1.946.055c.473.139,2,.666,1.733,1.572l0,0C223.977,165.257,223.523,165.388,223.043,165.388Z" transform="translate(-199.815 -156.432)" fill="#f8f8ee"/>
                <path id="Path_12093" data-name="Path 12093" d="M213.465,164.987a4.539,4.539,0,0,1-1.23-.2c-.473-.142-2-.67-1.733-1.572.076-.26.321-.571,1.042-.581a5.06,5.06,0,0,1,1.266.2c.475.139,2,.666,1.733,1.572-.076.26-.319.571-1.042.579Z" transform="translate(-210.472 -156.876)" fill="#f8f8ee"/>
                <path id="Path_12094" data-name="Path 12094" d="M214.794,162.262a4.533,4.533,0,0,1-1.23-.2c-.475-.139-2-.668-1.735-1.572a.735.735,0,0,1,.363-.433,3.108,3.108,0,0,1,1.946.053c.473.139,2,.668,1.733,1.572-.078.26-.321.571-1.042.581Z" transform="translate(-208.995 -159.91)" fill="#f8f8ee"/>
              </g>
            </g>
          </g>
        </g>
        <g id="Group_16389" data-name="Group 16389" transform="translate(30.929 86.323)">
          <rect id="Rectangle_17345" data-name="Rectangle 17345" width="37.074" height="15.244" rx="2.303" transform="translate(5.847 21.772) rotate(-20.191)" fill="#fff"/>
          <g id="Group_16387" data-name="Group 16387" transform="translate(13.374 17.058)">
            <path id="Path_12095" data-name="Path 12095" d="M217.648,214.862a.26.26,0,0,1-.11-.025,2.752,2.752,0,0,1-1.276-1.162,1.181,1.181,0,0,1,0-.961.793.793,0,0,1,.5-.444.86.86,0,0,1,.516.025,1.373,1.373,0,0,1,.015-.279,1.114,1.114,0,0,1,1.219-.807,2.3,2.3,0,0,1,.852.292,1.917,1.917,0,0,0,.659.239.265.265,0,0,1,.243.285.273.273,0,0,1-.287.241,2.339,2.339,0,0,1-.852-.294,1.893,1.893,0,0,0-.661-.237.6.6,0,0,0-.655.385,1.117,1.117,0,0,0,.171.661.265.265,0,0,1-.421.315.91.91,0,0,0-.653-.319.269.269,0,0,0-.165.158.64.64,0,0,0,0,.518,2.265,2.265,0,0,0,1.016.9.265.265,0,0,1-.11.505Z" transform="translate(-215.265 -202.808)" fill="#390028" opacity="0.11"/>
            <path id="Path_12096" data-name="Path 12096" d="M216.961,215.452a.26.26,0,0,1-.1-.021,2.1,2.1,0,0,1-.934-.807.963.963,0,0,1-.171-.723.776.776,0,0,1,.86-.571,1.836,1.836,0,0,1,.814.328.264.264,0,0,1,.087.363.267.267,0,0,1-.363.087,1.4,1.4,0,0,0-.579-.251.27.27,0,0,0-.3.161.5.5,0,0,0,.1.328,1.571,1.571,0,0,0,.7.6.264.264,0,0,1,.139.347A.268.268,0,0,1,216.961,215.452Z" transform="translate(-215.735 -200.443)" fill="#390028" opacity="0.11"/>
            <path id="Path_12097" data-name="Path 12097" d="M221.107,211.168a.245.245,0,0,1-.131-.036,1.016,1.016,0,0,1-.482-1.018.956.956,0,0,1,.782-.786,1.287,1.287,0,0,1,.818.192,2.964,2.964,0,0,1,.9.763.264.264,0,0,1-.416.325,2.479,2.479,0,0,0-.74-.625.867.867,0,0,0-.49-.133.428.428,0,0,0-.338.347.51.51,0,0,0,.226.48.263.263,0,0,1-.133.492Z" transform="translate(-210.451 -204.906)" fill="#390028" opacity="0.11"/>
            <path id="Path_12098" data-name="Path 12098" d="M222.1,214.105a.269.269,0,0,1-.222-.118,7.977,7.977,0,0,1-.653-1.213c-.192-.448-.072-.689.061-.814a.645.645,0,0,1,.414-.146,2.147,2.147,0,0,1,.484.025.99.99,0,0,1,.281-.816,1.516,1.516,0,0,1,1.46-.254c.165.042.33.1.494.156a3.548,3.548,0,0,0,.714.2.264.264,0,1,1-.061.524,4.048,4.048,0,0,1-.828-.222c-.15-.051-.3-.1-.45-.144a1.076,1.076,0,0,0-.964.125.493.493,0,0,0-.112.444.325.325,0,0,0,.106.186c.027.013.057.025.085.04a.265.265,0,0,1-.207.486.769.769,0,0,1-.133-.063,1.709,1.709,0,0,0-.843-.156.324.324,0,0,0-.087.011h0c.011,0,.011.074.07.213a7.462,7.462,0,0,0,.611,1.128.266.266,0,0,1-.076.368A.271.271,0,0,1,222.1,214.105Z" transform="translate(-209.737 -203.37)" fill="#390028" opacity="0.11"/>
            <path id="Path_12099" data-name="Path 12099" d="M225.94,210.787a.259.259,0,0,1-.228-.133,3.914,3.914,0,0,1-.454-1.31,1.189,1.189,0,0,1,.15-.907.906.906,0,0,1,1-.26,1.481,1.481,0,0,1,.351.163,1.366,1.366,0,0,1,.2-.421,1.6,1.6,0,0,1,1.054-.666,3.034,3.034,0,0,1,1.974.545.263.263,0,0,1,.093.361.267.267,0,0,1-.361.093,2.7,2.7,0,0,0-1.625-.478,1.065,1.065,0,0,0-.7.444.744.744,0,0,0-.135.581.256.256,0,0,1-.12.279.259.259,0,0,1-.306-.023,1.888,1.888,0,0,0-.579-.376.4.4,0,0,0-.425.08.676.676,0,0,0-.049.5,3.373,3.373,0,0,0,.391,1.133.265.265,0,0,1-.1.359A.27.27,0,0,1,225.94,210.787Z" transform="translate(-205.164 -207.229)" fill="#390028" opacity="0.11"/>
            <path id="Path_12100" data-name="Path 12100" d="M227.815,211.147a.268.268,0,0,1-.2-.087,2.69,2.69,0,0,1-.6-1.156.69.69,0,0,1,.782-1,3.5,3.5,0,0,1,1.585.7.264.264,0,1,1-.325.416,2.924,2.924,0,0,0-1.342-.587.319.319,0,0,0-.163,0c-.04.019-.068.169-.025.355a2.143,2.143,0,0,0,.484.926.263.263,0,0,1-.021.374A.254.254,0,0,1,227.815,211.147Z" transform="translate(-203.222 -205.383)" fill="#390028" opacity="0.11"/>
          </g>
          <g id="Group_16388" data-name="Group 16388" transform="translate(0 0)">
            <rect id="Rectangle_17346" data-name="Rectangle 17346" width="43.349" height="12.681" rx="2.303" transform="translate(0 14.962) rotate(-20.192)" fill="#390028"/>
            <rect id="Rectangle_17347" data-name="Rectangle 17347" width="3.09" height="12.681" transform="translate(5.132 13.075) rotate(-20.191)" fill="#f94a3d" opacity="0.3"/>
            <rect id="Rectangle_17348" data-name="Rectangle 17348" width="3.09" height="12.681" transform="matrix(0.939, -0.345, 0.345, 0.939, 13.952, 9.831)" fill="#f94a3d" opacity="0.3"/>
            <rect id="Rectangle_17349" data-name="Rectangle 17349" width="3.089" height="12.681" transform="matrix(0.939, -0.345, 0.345, 0.939, 23.255, 6.41)" fill="#f94a3d" opacity="0.3"/>
            <rect id="Rectangle_17350" data-name="Rectangle 17350" width="3.09" height="12.681" transform="matrix(0.939, -0.345, 0.345, 0.939, 32.371, 3.058)" fill="#f94a3d" opacity="0.3"/>
          </g>
        </g>
        <g id="Group_16390" data-name="Group 16390" transform="translate(13.354 144.178)">
          <path id="Path_12101" data-name="Path 12101" d="M243.155,246.851,221.071,227.66a2.43,2.43,0,0,0-3.432.239h0a2.433,2.433,0,0,0,.239,3.434l22.084,19.191a2.432,2.432,0,0,0,3.432-.239h0A2.433,2.433,0,0,0,243.155,246.851Z" transform="translate(-183.333 -225.952)" fill="#470b1b"/>
          <path id="Path_12102" data-name="Path 12102" d="M219.972,288.523,202.11,273a3.135,3.135,0,0,1-.344-4.268l29.44-38.991a3.166,3.166,0,0,1,4.581-.606l22.929,19.929a3.165,3.165,0,0,1,.038,4.619l-34.509,34.589A3.138,3.138,0,0,1,219.972,288.523Z" transform="translate(-201.089 -224.453)" fill="#fff"/>
          <path id="Path_12103" data-name="Path 12103" d="M217.349,234.382l-11.472,15.193,24.106,20.95,13.446-13.477Z" transform="translate(-195.759 -217.804)" fill="#ff7664"/>
          <rect id="Rectangle_17351" data-name="Rectangle 17351" width="40.702" height="7.77" rx="1.176" transform="translate(31.826 0) rotate(40.994)" fill="#ff7664"/>
          <path id="Path_12104" data-name="Path 12104" d="M222.276,249.994a5.934,5.934,0,1,1-.378-8.6A6.091,6.091,0,0,1,222.276,249.994Z" transform="translate(-189.231 -211.552)" fill="#f94a3d"/>
        </g>
      </g>
    </g>
    <g id="Group_16394" data-name="Group 16394" transform="translate(87.204 143.895)">
      <g id="Group_16393" data-name="Group 16393">
        <path id="Path_12105" data-name="Path 12105" d="M96.615,193.166a1.662,1.662,0,1,1-1.661-1.638A1.65,1.65,0,0,1,96.615,193.166Z" transform="translate(-80.429 -90.875)" fill="#f9b361"/>
        <path id="Path_12106" data-name="Path 12106" d="M126.5,147.63a1.662,1.662,0,1,1-1.663-1.638A1.651,1.651,0,0,1,126.5,147.63Z" transform="translate(-47.165 -141.561)" fill="#f9b361"/>
        <path id="Path_12107" data-name="Path 12107" d="M105.266,260a1.662,1.662,0,1,1-1.663-1.638A1.651,1.651,0,0,1,105.266,260Z" transform="translate(-70.799 -16.483)" fill="#f9b361"/>
        <path id="Path_12108" data-name="Path 12108" d="M206.974,262.271a1.662,1.662,0,1,1-1.661-1.638A1.65,1.65,0,0,1,206.974,262.271Z" transform="translate(42.412 -13.954)" fill="#f9b361"/>
        <path id="Path_12109" data-name="Path 12109" d="M245.769,262.795a1.661,1.661,0,1,1-1.661-1.638A1.65,1.65,0,0,1,245.769,262.795Z" transform="translate(85.597 -13.371)" fill="#f9b361"/>
        <path id="Path_12110" data-name="Path 12110" d="M197.625,150.6a1.662,1.662,0,1,1-1.663-1.638A1.65,1.65,0,0,1,197.625,150.6Z" transform="translate(32.005 -138.254)" fill="#f9b361"/>
        <path id="Path_12111" data-name="Path 12111" d="M90.528,145.533a1.662,1.662,0,1,1-1.663-1.638A1.65,1.65,0,0,1,90.528,145.533Z" transform="translate(-87.204 -143.895)" fill="#f9b361"/>
        <path id="Path_12112" data-name="Path 12112" d="M237.9,223.475a1.661,1.661,0,1,1-1.661-1.638A1.65,1.65,0,0,1,237.9,223.475Z" transform="translate(76.843 -57.138)" fill="#f9b361"/>
        <path id="Path_12113" data-name="Path 12113" d="M210.818,194a.832.832,0,1,1-.833-.82A.826.826,0,0,1,210.818,194Z" transform="translate(48.539 -89.04)" fill="#f9b361"/>
        <path id="Path_12114" data-name="Path 12114" d="M250.619,200.149a.832.832,0,1,1-.83-.818A.826.826,0,0,1,250.619,200.149Z" transform="translate(92.842 -82.189)" fill="#f9b361"/>
        <path id="Path_12115" data-name="Path 12115" d="M242.712,180.135a1.662,1.662,0,1,1-1.661-1.638A1.65,1.65,0,0,1,242.712,180.135Z" transform="translate(82.192 -105.38)" fill="#f9b361"/>
        <path id="Path_12116" data-name="Path 12116" d="M131.429,203.021a1.2,1.2,0,1,1-1.2-1.183A1.192,1.192,0,0,1,131.429,203.021Z" transform="translate(-40.649 -79.399)" fill="#f9b361"/>
        <path id="Path_12117" data-name="Path 12117" d="M98.4,224.283a1.2,1.2,0,1,1-1.2-1.183A1.192,1.192,0,0,1,98.4,224.283Z" transform="translate(-77.413 -55.732)" fill="#f9b361"/>
      </g>
    </g>
    <g id="Group_16422" data-name="Group 16422" transform="translate(142.955 156.365)">
      <g id="Group_16398" data-name="Group 16398" transform="translate(13.324 109.222)">
        <g id="Group_16397" data-name="Group 16397">
          <g id="Group_16395" data-name="Group 16395" transform="translate(126.821 4.741)">
            <path id="Path_12118" data-name="Path 12118" d="M179.913,203.729c.239.085.507.188.795.3C180.42,203.917,180.152,203.814,179.913,203.729Z" transform="translate(-179.907 -203.727)" fill="#ffac79"/>
            <path id="Path_12119" data-name="Path 12119" d="M187.737,209.591c.139.15.281.3.423.456C188.018,209.893,187.876,209.741,187.737,209.591Z" transform="translate(-171.198 -197.202)" fill="#ffac79"/>
            <path id="Path_12120" data-name="Path 12120" d="M185.71,207.57l.218.2Z" transform="translate(-173.454 -199.451)" fill="#ffac79"/>
            <path id="Path_12121" data-name="Path 12121" d="M190.045,212.277c.152.19.306.389.461.583C190.351,212.666,190.2,212.467,190.045,212.277Z" transform="translate(-168.629 -194.212)" fill="#ffac79"/>
            <path id="Path_12122" data-name="Path 12122" d="M187.07,208.89c.131.133.262.27.391.406C187.332,209.16,187.2,209.023,187.07,208.89Z" transform="translate(-171.94 -197.982)" fill="#ffac79"/>
            <path id="Path_12123" data-name="Path 12123" d="M186.438,208.257l.18.18Z" transform="translate(-172.644 -198.687)" fill="#ffac79"/>
            <path id="Path_12124" data-name="Path 12124" d="M189.33,211.4c.059.07.12.146.18.218C189.45,211.546,189.389,211.47,189.33,211.4Z" transform="translate(-169.425 -195.188)" fill="#ffac79"/>
            <path id="Path_12125" data-name="Path 12125" d="M194.159,218.089c.2.309.4.623.594.938C194.554,218.71,194.358,218.4,194.159,218.089Z" transform="translate(-164.049 -187.743)" fill="#ffac79"/>
            <path id="Path_12126" data-name="Path 12126" d="M195.013,219.462c.18.292.357.579.535.877C195.37,220.041,195.193,219.754,195.013,219.462Z" transform="translate(-163.099 -186.215)" fill="#ffac79"/>
            <path id="Path_12127" data-name="Path 12127" d="M193.351,216.841c.175.266.353.539.53.809C193.7,217.38,193.526,217.107,193.351,216.841Z" transform="translate(-164.949 -189.132)" fill="#ffac79"/>
            <path id="Path_12128" data-name="Path 12128" d="M190.787,213.229c.171.226.344.452.518.683C191.131,213.681,190.958,213.455,190.787,213.229Z" transform="translate(-167.803 -193.152)" fill="#ffac79"/>
            <path id="Path_12129" data-name="Path 12129" d="M191.583,214.3c.148.2.3.4.446.609C191.879,214.7,191.731,214.5,191.583,214.3Z" transform="translate(-166.917 -191.964)" fill="#ffac79"/>
            <path id="Path_12130" data-name="Path 12130" d="M192.568,215.681c.051.074.1.154.154.228C192.672,215.835,192.619,215.755,192.568,215.681Z" transform="translate(-165.82 -190.423)" fill="#ffac79"/>
            <path id="Path_12131" data-name="Path 12131" d="M188.472,210.4c.106.12.209.235.315.357C188.681,210.636,188.578,210.521,188.472,210.4Z" transform="translate(-170.38 -196.3)" fill="#ffac79"/>
            <path id="Path_12132" data-name="Path 12132" d="M182.79,205.245c.108.072.213.142.321.216C183,205.387,182.9,205.317,182.79,205.245Z" transform="translate(-176.704 -202.039)" fill="#ffac79"/>
            <path id="Path_12133" data-name="Path 12133" d="M181.9,204.682l.262.158C182.074,204.788,181.986,204.733,181.9,204.682Z" transform="translate(-177.696 -202.666)" fill="#ffac79"/>
            <path id="Path_12134" data-name="Path 12134" d="M182.327,204.944l.317.2C182.536,205.077,182.433,205.01,182.327,204.944Z" transform="translate(-177.22 -202.374)" fill="#ffac79"/>
            <path id="Path_12135" data-name="Path 12135" d="M181.408,204.406c.076.042.148.078.226.12C181.556,204.484,181.484,204.448,181.408,204.406Z" transform="translate(-178.243 -202.973)" fill="#ffac79"/>
            <path id="Path_12136" data-name="Path 12136" d="M181,204.2c.108.053.216.106.328.163C181.214,204.3,181.106,204.248,181,204.2Z" transform="translate(-178.699 -203.208)" fill="#ffac79"/>
            <path id="Path_12137" data-name="Path 12137" d="M180.364,203.9c.108.044.224.1.338.146C180.586,204,180.472,203.948,180.364,203.9Z" transform="translate(-179.405 -203.532)" fill="#ffac79"/>
            <path id="Path_12138" data-name="Path 12138" d="M180.662,204.034c.108.051.222.1.336.158Z" transform="translate(-179.073 -203.387)" fill="#ffac79"/>
            <path id="Path_12139" data-name="Path 12139" d="M183.34,205.627l.182.129Z" transform="translate(-176.092 -201.614)" fill="#ffac79"/>
            <path id="Path_12140" data-name="Path 12140" d="M191.955,231.173l8.37,22.257a148.691,148.691,0,0,0,13.792-12.6c-.592-1.021-1.175-2.007-1.758-2.973-.177-.3-.355-.585-.535-.877-.406-.666-.809-1.323-1.211-1.963-.2-.315-.4-.63-.594-.938-.4-.623-.788-1.23-1.177-1.828-.178-.27-.355-.543-.53-.809q-.758-1.141-1.5-2.223c-.051-.074-.1-.154-.154-.228-.551-.8-1.1-1.566-1.636-2.316-.15-.207-.3-.406-.446-.609q-.586-.805-1.164-1.574c-.173-.23-.347-.456-.518-.683q-.558-.732-1.107-1.428c-.154-.194-.309-.393-.461-.583q-.672-.843-1.331-1.635c-.059-.072-.12-.148-.18-.218-.505-.609-1-1.19-1.5-1.754-.106-.123-.209-.237-.315-.357-.38-.429-.759-.849-1.131-1.255-.142-.154-.283-.306-.423-.456-.344-.37-.683-.729-1.018-1.076-.129-.135-.26-.273-.391-.406q-.586-.6-1.156-1.158l-.18-.18q-.672-.653-1.321-1.253l-.218-.2c-.351-.319-.7-.63-1.033-.928l-.349-.3c-.3-.258-.59-.507-.879-.746-.112-.093-.226-.188-.338-.279-.315-.258-.623-.5-.928-.74-.068-.055-.139-.112-.207-.165q-.561-.431-1.092-.82l-.182-.129c-.285-.2-.566-.4-.841-.592-.108-.074-.213-.144-.321-.216-.224-.15-.446-.3-.661-.435l-.317-.2c-.22-.139-.433-.268-.642-.4l-.262-.158c-.279-.163-.552-.319-.811-.463-.078-.042-.15-.078-.226-.12-.184-.1-.366-.194-.539-.283-.112-.057-.22-.11-.328-.163-.127-.063-.254-.125-.374-.182s-.228-.108-.336-.158l-.292-.129c-.114-.051-.23-.1-.338-.146-.055-.023-.106-.042-.158-.065-.287-.116-.556-.22-.795-.3l-.006,0h0C187.743,208.406,191.841,216.952,191.955,231.173Z" transform="translate(-179.91 -203.728)" fill="#1dc34b"/>
          </g>
          <g id="Group_16396" data-name="Group 16396">
            <path id="Path_12141" data-name="Path 12141" d="M272.19,269.39l-5.061-13.463-8.37-22.257a52.794,52.794,0,0,0-1.266-11.726c-1.773-7.459-5.393-12.5-10.779-15.719h0c-5.792-3.461-13.621-4.816-23.443-4.738l-50.309.408a25.117,25.117,0,0,0-15.033,5.171,27.974,27.974,0,0,0-8.645,11.117L120.666,266.5a5.5,5.5,0,0,0,3.292,8.119l21.087,5.735,2.76,78.305,111.876-.025,3.721-55.477,2.922-4.492,3.315-5.1A27.111,27.111,0,0,0,272.19,269.39Z" transform="translate(-119.893 -201.484)" fill="#23aa49"/>
          </g>
        </g>
        <path id="Path_12142" data-name="Path 12142" d="M153.719,228.052l1.759,40.019-12.149-10.01Z" transform="translate(-93.808 -171.912)" fill="#353535" opacity="0.27"/>
      </g>
      <g id="Group_16414" data-name="Group 16414" transform="translate(38.303)">
        <path id="Path_12143" data-name="Path 12143" d="M263.3,240.107c-1.228-4.266-3.916-7.652-6.842-10.889a21.96,21.96,0,0,0-3.531-22.526l-7.863-8.106c.006-1.988-.021-3.983-.192-5.974a36.27,36.27,0,0,0-1.335-7.032l-1.283-8.326c-2.76-17.89-15.7-30.2-37.846-26.788l-2.618.281a40.075,40.075,0,0,0-6.779-.923,25.928,25.928,0,0,0-23.525,11.1,21.386,21.386,0,1,0-22.471,31.916c-3.911,3.13-7.778,6.339-10.149,10.821a23.634,23.634,0,0,0-1.593,18.627c1.536,4.368,4.438,8.742,3.313,13.234-.63,2.521-2.441,4.545-3.88,6.709s-2.563,4.894-1.619,7.316c1.251,3.21,5.3,4.127,8.74,4.359,5.177.347,10.371.184,15.557.023,17.327-.545,34.636-1.173,51.929-2.1,4.554,4.636,21.754,11.032,21.754,11.032l11.221-2.221c4.53-.342,2.878-5.285,2.512-11.206q5.645-.475,11.284-1.008a7.887,7.887,0,0,0,3.5-.9C263.893,246.081,264.055,242.732,263.3,240.107Z" transform="translate(-131.714 -149.796)" fill="#390028"/>
        <g id="Group_16413" data-name="Group 16413" transform="translate(30.657 33.971)">
          <g id="Group_16402" data-name="Group 16402">
            <g id="Group_16401" data-name="Group 16401">
              <g id="Group_16400" data-name="Group 16400">
                <g id="Group_16399" data-name="Group 16399">
                  <path id="Path_12144" data-name="Path 12144" d="M217.379,171.24a5.269,5.269,0,0,1-4.408-1.462l-3.829-3.905c-1.384.213-.078,6.612-1.441,6.709a44.358,44.358,0,0,1-27.407-6.654c-.649,10-5.221,17.782-11.774,18.7l-7.994,1.445-4.433.507a11.171,11.171,0,0,0-9.8,12.33h0a11.169,11.169,0,0,0,12.332,9.8l.292-.032v40.629a16.79,16.79,0,0,0,16.742,16.742h7.172a16.79,16.79,0,0,0,16.742-16.742v-13.3a26.089,26.089,0,0,0,21.932-28.738Z" transform="translate(-146.222 -165.873)" fill="#ffac79"/>
                </g>
                <path id="Path_12145" data-name="Path 12145" d="M191.359,210.191l-5.819.666a25.888,25.888,0,0,1-28.664-22.773l-.264-2.31-2.422.277.651,5.686a25.957,25.957,0,0,0,7.043,15.005,14.478,14.478,0,0,0,27.84,7.278,26.093,26.093,0,0,0,21.8-17.9A25.85,25.85,0,0,1,191.359,210.191Z" transform="translate(-137.353 -143.721)" fill="#ff755f" opacity="0.32"/>
              </g>
            </g>
          </g>
          <g id="Group_16412" data-name="Group 16412" transform="translate(6.281 10.203)">
            <path id="Path_12146" data-name="Path 12146" d="M150.624,187.933a1.055,1.055,0,0,1-.585-1.934l3.115-2.084-3.681-4a1.057,1.057,0,1,1,1.555-1.431l4.516,4.911a1.056,1.056,0,0,1-.192,1.593l-4.142,2.768A1.045,1.045,0,0,1,150.624,187.933Z" transform="translate(-149.194 -162.421)" fill="#ff755f"/>
            <g id="Group_16409" data-name="Group 16409" transform="translate(26.4)">
              <g id="Group_16404" data-name="Group 16404" transform="translate(11.738 5.363)">
                <g id="Group_16403" data-name="Group 16403" transform="translate(0 44.244)">
                  <path id="Path_12147" data-name="Path 12147" d="M175.089,197.988a1.053,1.053,0,0,1-.752-.315,5.028,5.028,0,0,0-5.583-.9,1.058,1.058,0,0,1-.917-1.906c.186-.089,4.583-2.151,8,1.325a1.057,1.057,0,0,1-.752,1.8Z" transform="translate(-167.243 -194.178)" fill="#ff755f"/>
                </g>
                <path id="Path_12148" data-name="Path 12148" d="M171.478,194.908a.792.792,0,0,1-.053-1.583l3.2-.211a7.292,7.292,0,0,0,4.6-1.942,4.982,4.982,0,0,0,1.629-3.92,1.014,1.014,0,0,0-.368-.7,1.79,1.79,0,0,0-1.266-.393,3.992,3.992,0,0,1-4.406-3.206l-1.063-8.833a.791.791,0,0,1,.691-.881.783.783,0,0,1,.881.691l1.063,8.833a2.447,2.447,0,0,0,2.73,1.815,3.406,3.406,0,0,1,2.415.784,2.582,2.582,0,0,1,.9,1.783,6.527,6.527,0,0,1-2.113,5.162,8.875,8.875,0,0,1-5.591,2.384l-3.2.209Z" transform="translate(-163.413 -173.239)" fill="#ff755f"/>
              </g>
              <g id="Group_16408" data-name="Group 16408">
                <g id="Group_16407" data-name="Group 16407">
                  <g id="Group_16405" data-name="Group 16405">
                    <path id="Path_12149" data-name="Path 12149" d="M173.23,170.753a6.661,6.661,0,0,0-2.764.366c-.959.258-1.927.494-2.777.67s-1.836.344-2.819.488a6.705,6.705,0,0,0-2.677.761c-.666.461-.78,1.405.311,2.314a7.694,7.694,0,0,0,6.21,1.027c2.81-.59,4.659-2.174,5.221-3.394C174.54,171.725,174.033,170.907,173.23,170.753Z" transform="translate(-161.688 -170.702)" fill="#390028"/>
                  </g>
                  <g id="Group_16406" data-name="Group 16406" transform="translate(30.053 1.665)">
                    <path id="Path_12150" data-name="Path 12150" d="M176.467,172.444a5.8,5.8,0,0,1,2.377-.38c.856-.021,1.714-.066,2.46-.131s1.6-.167,2.449-.292a5.728,5.728,0,0,1,2.4-.03c.664.216.991.97.315,1.988a6.628,6.628,0,0,1-4.879,2.379,6.444,6.444,0,0,1-5.154-1.515C175.626,173.57,175.844,172.771,176.467,172.444Z" transform="translate(-175.91 -171.489)" fill="#390028"/>
                  </g>
                </g>
              </g>
            </g>
            <path id="Path_12151" data-name="Path 12151" d="M155.532,185.242a2.566,2.566,0,1,1-2.612-2.519A2.564,2.564,0,0,1,155.532,185.242Z" transform="translate(-147.851 -157.321)" fill="#fff"/>
            <path id="Path_12152" data-name="Path 12152" d="M176.277,191.933c-4.118,0-7-.928-8.588-2.768a5.326,5.326,0,0,1-1.179-4.507.734.734,0,0,1,1.426.349,3.828,3.828,0,0,0,.881,3.218c1.137,1.3,3.892,2.724,10.559,2.079a.747.747,0,0,1,.8.661.737.737,0,0,1-.661.8Q177.788,191.931,176.277,191.933Z" transform="translate(-130.035 -155.788)" fill="#ff755f"/>
            <g id="Group_16410" data-name="Group 16410" transform="translate(56.114 7.999)">
              <path id="Path_12153" data-name="Path 12153" d="M188.755,180.116c-.389-2.1-1.644-5.175-5.65-5.6a6.01,6.01,0,0,0-1.834.087c-2.629.524-4.3,2.777-5.264,4.676a2.417,2.417,0,0,0,.33,2.658,4.28,4.28,0,0,1,8.482.294,3.991,3.991,0,0,1-.025.528c1.181-.118,2.185-.279,2.9-.412a1.475,1.475,0,0,0,1.152-1.657C188.824,180.514,188.793,180.319,188.755,180.116Z" transform="translate(-175.749 -174.487)" fill="#fff"/>
              <path id="Path_12154" data-name="Path 12154" d="M180.008,176.331a4.226,4.226,0,0,0-3.981,3.567,2.084,2.084,0,0,0,1.291.731,29.827,29.827,0,0,0,7.166.091,3.989,3.989,0,0,0,.025-.528A4.194,4.194,0,0,0,180.008,176.331Z" transform="translate(-175.441 -172.443)" fill="#390028"/>
            </g>
            <g id="Group_16411" data-name="Group 16411" transform="translate(27.66 8.198)">
              <path id="Path_12155" data-name="Path 12155" d="M179.358,181.8c-.414-2.612-1.917-6.464-7.151-7.146a8.392,8.392,0,0,0-2.411.034c-3.472.543-5.769,3.258-7.121,5.568a2.86,2.86,0,0,0,1.969,4.256c.5.087,1,.146,1.5.207a4.747,4.747,0,0,1-.173-1.116,5.626,5.626,0,0,1,11.2-.273,4.7,4.7,0,0,1-.175,1.3c.309-.04.613-.078.873-.116a1.852,1.852,0,0,0,1.587-2C179.429,182.291,179.4,182.048,179.358,181.8Z" transform="translate(-162.284 -174.581)" fill="#fff"/>
              <path id="Path_12156" data-name="Path 12156" d="M169.5,176.378a5.366,5.366,0,0,0-5.475,5.226,4.746,4.746,0,0,0,.173,1.116,45.816,45.816,0,0,0,10.849-.085,4.7,4.7,0,0,0,.175-1.3A5.363,5.363,0,0,0,169.5,176.378Z" transform="translate(-160.343 -172.584)" fill="#390028"/>
            </g>
          </g>
        </g>
      </g>
      <g id="Group_16415" data-name="Group 16415" transform="translate(145.538 68.812)">
        <path id="Path_12157" data-name="Path 12157" d="M251.795,301.392l-6.773-25.854L226.343,211.7c-.082-.3-.169-.6-.264-.9l-.505-1.728-.085.049a26.014,26.014,0,0,0-10.8-12.837l-14.506-8.738-7.349-3.43c-2.179-1.019-7.964-3.463-10.147.175-1.348,3.628,3.812,5.79,5.724,6.711l10.371,4.991s-5.105-.606-8.89,1.631a7.456,7.456,0,0,0-3.375,8.03l.249,1.137.374-.27a12.1,12.1,0,0,1,7.973-2.288l3.263.23s-11.252-.805-12.5,4.607,1.194,5.606,1.194,5.606,5.619-3.3,10.445-.788c0,0-15.03-2.088-14.044,6.7.611,5.458,6.813,8.668,11.43,10.322l8.1,41.672c-1.781,1.6-3.679,3.22-5.515,4.63l5.061,13.463a27.111,27.111,0,0,1-2.551,24.17l-3.315,5.1,27.561,6.236a20.4,20.4,0,0,0,2.519.571l1.712.387.065-.167a20.246,20.246,0,0,0,10.113-1.87A20.852,20.852,0,0,0,251.795,301.392Zm-53.381-76.536-.516.3-1.422-1.758Z" transform="translate(-182.462 -182.361)" fill="#ffac79"/>
        <path id="Path_12158" data-name="Path 12158" d="M190.478,216.6l16.125-9.293-18.156-1.693" transform="translate(-175.801 -156.475)" fill="#ff8970" opacity="0.51"/>
        <path id="Path_12159" data-name="Path 12159" d="M198.027,199.789a9.556,9.556,0,0,0-2.973-1.348,12.08,12.08,0,0,0-3.3-.416,14.061,14.061,0,0,0-3.309.49,18.422,18.422,0,0,0-3.151,1.2l-.034.015a.792.792,0,1,1-.672-1.435l.017-.008a19.785,19.785,0,0,1,3.472-1.219,15.431,15.431,0,0,1,3.673-.444,13.421,13.421,0,0,1,3.67.56,10.663,10.663,0,0,1,3.375,1.661.606.606,0,0,1-.716.978Z" transform="translate(-180.605 -166.483)" fill="#ff755f"/>
        <path id="Path_12160" data-name="Path 12160" d="M197.775,194.11a9.633,9.633,0,0,0-3.256-.613,12.208,12.208,0,0,0-3.332.385,14.1,14.1,0,0,0-3.108,1.27,18.331,18.331,0,0,0-2.779,1.921l-.027.023a.793.793,0,1,1-1-1.236l.027-.021a19.855,19.855,0,0,1,3.117-1.948,15.44,15.44,0,0,1,3.476-1.234,13.363,13.363,0,0,1,3.679-.256,10.577,10.577,0,0,1,3.609.868.467.467,0,0,1-.363.86Z" transform="translate(-180.771 -171.223)" fill="#ff755f"/>
        <path id="Path_12161" data-name="Path 12161" d="M193.394,225.029l8.063,28.865-10.432-26.68Z" transform="translate(-172.931 -134.867)" fill="#ff755f" opacity="0.32"/>
      </g>
      <g id="Group_16421" data-name="Group 16421" transform="translate(0 142.472)">
        <g id="Group_16419" data-name="Group 16419" transform="translate(99.123)">
          <g id="Group_16418" data-name="Group 16418" transform="translate(0)">
            <g id="Group_16417" data-name="Group 16417">
              <rect id="Rectangle_17352" data-name="Rectangle 17352" width="38.734" height="74.242" rx="2.281" transform="matrix(-0.995, -0.097, 0.097, -0.995, 38.552, 77.642)" fill="#390028"/>
              <g id="Group_16416" data-name="Group 16416" transform="translate(28.746 7.224)">
                <path id="Path_12162" data-name="Path 12162" d="M175.934,224.7l8.446.845a2.042,2.042,0,0,0,2.229-1.824h0a2.044,2.044,0,0,0-1.824-2.229l-8.446-.845a2.043,2.043,0,0,0-2.229,1.824h0A2.042,2.042,0,0,0,175.934,224.7Z" transform="translate(-174.1 -220.638)" fill="#e1e2fe" opacity="0.47"/>
                <path id="Path_12163" data-name="Path 12163" d="M178.489,222.485a.993.993,0,1,0,1.092-1.021A1.062,1.062,0,0,0,178.489,222.485Z" transform="translate(-169.222 -219.723)" fill="#390028"/>
              </g>
            </g>
          </g>
        </g>
        <path id="Path_12164" data-name="Path 12164" d="M263.815,252.358a3.109,3.109,0,0,0-3.711-1.885l2.739-1.232c1.684-.759,2.392-3.026,1.576-5.042a4.2,4.2,0,0,0-1.728-2.043l.006,0c1.705-.706,2.466-2.946,1.695-4.981s-2.8-3.119-4.5-2.413l-1.574.651c1.7-.706,2.466-2.946,1.693-4.981s-2.8-3.119-4.5-2.415l-26.45,10.948c-.6.249-10.973-.015-12.021-7.715l-1.891,2.838c-2.026,1.116-3.3,4.507-4.676,7.939a39.156,39.156,0,0,0-1.729,5.64l-31.593,9.872L133.335,246.01l-18.082,40.745c-5.441,14.4,2.886,30.893,18.6,36.831a27.208,27.208,0,0,0,22.316-1.16,30.648,30.648,0,0,0,5.845-3.132l55.2-37.9-.047-.211c15.373,1.737,38.365-18.648,41.759-22.289l3.7-1.959A3.515,3.515,0,0,0,263.815,252.358Z" transform="translate(-113.588 -205.444)" fill="#ffac79"/>
        <g id="Group_16420" data-name="Group 16420" transform="translate(131.187 28.12)">
          <path id="Path_12165" data-name="Path 12165" d="M176.588,238.2a1.06,1.06,0,0,1-.26-2.031l13.429-5.557a1.06,1.06,0,0,1,.809,1.959l-13.429,5.557A1.031,1.031,0,0,1,176.588,238.2Z" transform="translate(-175.671 -230.527)" fill="#ff755f"/>
          <path id="Path_12166" data-name="Path 12166" d="M177.543,241.852a1.06,1.06,0,0,1-.262-2.031l13.429-5.557a1.06,1.06,0,1,1,.809,1.959l-13.429,5.557A1.023,1.023,0,0,1,177.543,241.852Z" transform="translate(-174.61 -226.459)" fill="#ff755f"/>
          <path id="Path_12167" data-name="Path 12167" d="M177.54,246.041a1.06,1.06,0,0,1-.3-2.016l13.239-6.039a1.06,1.06,0,1,1,.879,1.929l-13.236,6.039A1.027,1.027,0,0,1,177.54,246.041Z" transform="translate(-174.613 -222.335)" fill="#ff755f"/>
        </g>
        <path id="Path_12168" data-name="Path 12168" d="M161.773,243.135l-9.147-2.406L127.37,254.072Z" transform="translate(-98.247 -191.052)" fill="#ff755f" opacity="0.28"/>
      </g>
    </g>
  </g>
</svg>
