<svg xmlns="http://www.w3.org/2000/svg" width="345.592" height="264.244" viewBox="0 0 345.592 264.244">
  <g id="Group_16567" data-name="Group 16567" transform="translate(-500.413 -150.885)">
    <g id="Group_16522" data-name="Group 16522" transform="translate(500.413 166.574)">
      <g id="Group_16521" data-name="Group 16521">
        <g id="Group_16520" data-name="Group 16520">
          <g id="Group_16519" data-name="Group 16519">
            <g id="Group_16516" data-name="Group 16516">
              <g id="Group_16515" data-name="Group 16515">
                <g id="Group_16514" data-name="Group 16514" opacity="0.61">
                  <g id="Group_16513" data-name="Group 16513">
                    <g id="Group_16506" data-name="Group 16506">
                      <g id="Group_16503" data-name="Group 16503" transform="translate(0 159.158)" opacity="0.41">
                        <path id="Path_12249" data-name="Path 12249" d="M502.217,245.967c-2.306-2.743-2.415-6.92-.246-9.329s7.307-3.813,9.613-1.07-.971,6.666-1.757,10.1C508.729,250.459,504.521,248.711,502.217,245.967Z" transform="translate(-500.413 -234.064)" fill="#ff9455"/>
                      </g>
                      <g id="Group_16504" data-name="Group 16504" transform="translate(332.501 128.589)" opacity="0.41">
                        <path id="Path_12250" data-name="Path 12250" d="M669.064,221.477a8.719,8.719,0,0,1,1.329,10.821c-2.151,3.424-7.727,6.508-10.611,3.954s.33-8.053.82-12.284C661.284,218.068,666.18,218.923,669.064,221.477Z" transform="translate(-658.593 -219.522)" fill="#ff9455"/>
                      </g>
                      <g id="Group_16505" data-name="Group 16505" transform="translate(174.292)" opacity="0.41">
                        <path id="Path_12251" data-name="Path 12251" d="M585.522,162.177c3.073-3.887,9.253-5,13.8-2.48s8.913,9.459,5.839,13.346-10.369.153-15.837-.174C581.7,172.412,582.449,166.064,585.522,162.177Z" transform="translate(-583.328 -158.349)" fill="#ff9455"/>
                      </g>
                    </g>
                    <g id="Group_16509" data-name="Group 16509" transform="translate(16.862 11.195)" opacity="0.28">
                      <g id="Group_16508" data-name="Group 16508">
                        <g id="Group_16507" data-name="Group 16507">
                          <path id="Path_12252" data-name="Path 12252" d="M513.821,380.239c-3.281-19.36,1.978-35.873,3.29-54.857,1.24-17.97-4.137-33.086-7.12-50.2-2.655-15.234-1.77-32.489,1.562-47.462,4.551-20.44,15.03-39.369,30.129-50.907,23.526-17.981,54.9-15.864,80.891-3.5,10.885,5.179,21.426,12.072,33.084,13.817,17,2.541,33.551-6.157,50.113-11.376,22.544-7.1,47.294-7.63,68.567,3.582,24.119,12.713,41.267,41.412,39.264,73.021-.908,14.321-5.552,28.455-3.908,42.684,1.667,14.43,8.89,26.5,12.711,40.092a114.648,114.648,0,0,1,2.829,44.109,23.736,23.736,0,0,1-23.53,20.526H537.179a23.557,23.557,0,0,1-23.324-19.326Z" transform="translate(-508.434 -163.674)" fill="#ff9455"/>
                        </g>
                      </g>
                    </g>
                    <g id="Group_16512" data-name="Group 16512" transform="translate(57.083 76.011)" opacity="0.66">
                      <g id="Group_16511" data-name="Group 16511">
                        <g id="Group_16510" data-name="Group 16510" opacity="0.47">
                          <path id="Path_12253" data-name="Path 12253" d="M759.294,270.771c-1.137-13.859-6.6-27.743-16.062-37.662-14.746-15.461-37.051-19.358-56.6-15.782-8.187,1.5-16.308,4.147-24.691,3.313-12.228-1.217-23-9.562-34.131-15.679-15.154-8.326-32.525-12.808-48.635-9.184a45.117,45.117,0,0,0-35.03,40.214c-.811,9.329,7.418,25.763,4.82,34.606-2.634,8.965-21.863,36.433-21.39,57.325.406,17.806,3.706,25.117,8.57,33.481a8.79,8.79,0,0,0,7.595,4.385H736.9a8.75,8.75,0,0,0,8.326-6.014c2.682-8.213,3.962-15.99.277-27.354-3.645-11.246,6.26-20.508,10.092-30.976C759,292.128,760.124,280.924,759.294,270.771Z" transform="translate(-527.569 -194.509)" fill="#ff9455"/>
                        </g>
                      </g>
                    </g>
                  </g>
                </g>
              </g>
            </g>
            <g id="Group_16518" data-name="Group 16518" transform="translate(340.163 63.081)">
              <g id="Group_16517" data-name="Group 16517">
                <path id="Path_12254" data-name="Path 12254" d="M662.238,188.358" transform="translate(-662.238 -188.358)" fill="#fff" stroke="#fca97c" stroke-miterlimit="10" stroke-width="0.5"/>
              </g>
            </g>
          </g>
        </g>
      </g>
    </g>
    <g id="Group_16564" data-name="Group 16564" transform="translate(527.783 179.258)">
      <g id="Group_16523" data-name="Group 16523" transform="translate(57.77)">
        <path id="Path_12255" data-name="Path 12255" d="M578.6,308.028a3.153,3.153,0,0,1-3.149-3.046L570.9,172.789c-.059-1.619-2.75-1.968-8.03-2.068l-1.408-.032a3.153,3.153,0,0,1,.172-6.3l1.358.029c5.211.1,13.928.269,14.21,8.152l4.557,132.2a3.153,3.153,0,0,1-3.044,3.26Z" transform="translate(-521.655 -164.383)" fill="#23aa49"/>
        <path id="Path_12256" data-name="Path 12256" d="M555.038,333.97l76.249.555a4.428,4.428,0,0,0,4.444-4.067l11.778-144.179-106.3-.774L550.9,330.071A4.182,4.182,0,0,0,555.038,333.97Z" transform="translate(-540.597 -141.105)" fill="#23aa49"/>
        <path id="Path_12257" data-name="Path 12257" d="M542.882,210.493l2.329,34.738H638.6l2.838-34.738Z" transform="translate(-538.75 -113.568)" fill="#f8f8ee"/>
        <path id="Path_12258" data-name="Path 12258" d="M541.206,185.505l106.3.774-.071.874-95.317-.7,9.693,144.568a4.162,4.162,0,0,0,1.617,3.006l-8.391-.061a4.182,4.182,0,0,1-4.139-3.9Z" transform="translate(-540.597 -141.105)" fill="#1d933f"/>
        <path id="Path_12259" data-name="Path 12259" d="M646.246,190.966,541.483,190.2l.48,5.144,103.88.413Z" transform="translate(-540.291 -135.927)" fill="#390028" opacity="0.46"/>
        <path id="Path_12260" data-name="Path 12260" d="M540.916,185.447l.722,10.776H647.621l.816-9.993Z" transform="translate(-540.916 -141.17)" fill="#f8f8ee"/>
      </g>
      <g id="Group_16529" data-name="Group 16529" transform="translate(139.806 74.644)">
        <g id="Group_16528" data-name="Group 16528">
          <rect id="Rectangle_17356" data-name="Rectangle 17356" width="62.656" height="19.959" rx="3.1" transform="translate(25.034)" fill="#f94a3d"/>
          <path id="Path_12261" data-name="Path 12261" d="M580.076,215.556l18.461,96.221h74.124L691.4,215Z" transform="translate(-579.796 -183.249)" fill="#f94a3d"/>
          <g id="Group_16524" data-name="Group 16524" transform="translate(0.28 31.747)" opacity="0.11">
            <path id="Path_12262" data-name="Path 12262" d="M691.386,215.08,691.4,215l-111.326.56,18.461,96.221h16.531l-18.461-96.221Z" transform="translate(-580.076 -214.996)" fill="#390028"/>
          </g>
          <path id="Path_12263" data-name="Path 12263" d="M604.837,206.68h62.8l23.915,18.184H579.943L604.7,207.116" transform="translate(-579.943 -192.414)" fill="#ff7664"/>
          <g id="Group_16527" data-name="Group 16527" transform="translate(22.999 44.33)">
            <g id="Group_16525" data-name="Group 16525">
              <path id="Path_12264" data-name="Path 12264" d="M640.439,227.163a31.129,31.129,0,1,0,7.534,43.374A31.126,31.126,0,0,0,640.439,227.163Zm-31.823,45.2a24.152,24.152,0,1,1,33.652-5.846A24.151,24.151,0,0,1,608.616,272.366Z" transform="translate(-590.331 -220.429)" fill="#f9b361"/>
              <path id="Path_12265" data-name="Path 12265" d="M623,285.357a32.184,32.184,0,1,1,18.595-58.5h0A32.2,32.2,0,0,1,623,285.357Zm.135-62.273a30.393,30.393,0,0,0-5.213.452,29.937,29.937,0,1,0,5.213-.452Zm-.1,55.279a25.066,25.066,0,0,1-14.475-4.585h0a25.231,25.231,0,1,1,14.475,4.585Zm-13.264-6.3a23.1,23.1,0,1,0-9.461-14.935,23.126,23.126,0,0,0,9.461,14.935Z" transform="translate(-590.884 -220.982)" fill="#ff7664"/>
            </g>
            <g id="Group_16526" data-name="Group 16526" transform="translate(6.979 6.993)">
              <path id="Path_12266" data-name="Path 12266" d="M632.763,229.21a24.152,24.152,0,1,0,5.846,33.652A24.151,24.151,0,0,0,632.763,229.21ZM621.522,258.23a1.467,1.467,0,0,1-2.041.355l-9.892-6.966a1.463,1.463,0,0,1-.355-2.039l6.966-9.894a1.463,1.463,0,0,1,2.039-.355l9.894,6.966a1.463,1.463,0,0,1,.353,2.039Z" transform="translate(-593.651 -223.763)" fill="#f9b361"/>
              <path id="Path_12267" data-name="Path 12267" d="M619.378,274.7a25.2,25.2,0,1,1,14.544-45.8h0a25.2,25.2,0,0,1-14.544,45.8Zm.067-48.286a23.092,23.092,0,1,0,13.264,4.2h0A22.966,22.966,0,0,0,619.445,226.411Zm1.429,34.036a2.49,2.49,0,0,1-1.446-.458l-9.894-6.964a2.519,2.519,0,0,1-.605-3.506l6.964-9.892a2.523,2.523,0,0,1,3.506-.607l9.892,6.964a2.514,2.514,0,0,1,.608,3.5l-6.966,9.894A2.506,2.506,0,0,1,620.875,260.447Zm-2.924-19.787a.421.421,0,0,0-.34.177l-6.964,9.892a.414.414,0,0,0,.1.576l9.894,6.966a.418.418,0,0,0,.576-.1l6.964-9.894a.408.408,0,0,0,.069-.307.4.4,0,0,0-.17-.267l-9.892-6.966A.408.408,0,0,0,617.951,240.661Z" transform="translate(-594.204 -224.309)" fill="#ff7664"/>
            </g>
          </g>
        </g>
      </g>
      <g id="Group_16538" data-name="Group 16538" transform="translate(0 147.05)">
        <rect id="Rectangle_17357" data-name="Rectangle 17357" width="124.66" height="10.137" rx="1.726" transform="matrix(1, -0.006, 0.006, 1, 0, 50.667)" fill="#470b1b"/>
        <path id="Path_12268" data-name="Path 12268" d="M628.8,262.641l-23.368.137a2.584,2.584,0,0,0-1.295.347l-8.259,4.957a2.674,2.674,0,0,1-2.445.095l-10.365-5.009a2.614,2.614,0,0,0-1.148-.25l-64.112.376c-1.156.008-2.1-.692-2.1-1.56l-.031-5.463c-.006-.868.929-1.579,2.085-1.585l110.992-.652c1.156-.008,2.1.692,2.1,1.56l.032,5.463C630.887,261.924,629.954,262.635,628.8,262.641Z" transform="translate(-510.971 -212.635)" fill="#ffd98b"/>
        <rect id="Rectangle_17358" data-name="Rectangle 17358" width="111.155" height="7.528" rx="0.745" transform="translate(6.658 60.327) rotate(-0.337)" fill="#f94a3d"/>
        <rect id="Rectangle_17359" data-name="Rectangle 17359" width="111.155" height="2.231" rx="0.446" transform="matrix(1, -0.006, 0.006, 1, 6.658, 60.327)" fill="#ec6565" opacity="0.74"/>
        <g id="Group_16532" data-name="Group 16532" transform="translate(5.353 66.205)">
          <g id="Group_16531" data-name="Group 16531">
            <g id="Group_16530" data-name="Group 16530">
              <path id="Path_12269" data-name="Path 12269" d="M612.6,287.817l-78.612.336c-9.846.042-17.874-5.728-17.93-12.888l-.074-8.942,114.271-.49.071,8.94C630.382,281.936,622.444,287.775,612.6,287.817Z" transform="translate(-515.98 -265.834)" fill="#ffac79"/>
            </g>
          </g>
          <path id="Path_12270" data-name="Path 12270" d="M630.251,265.834l-5.9.025c-1.106,6.354-8.52,11.288-17.567,11.326l-66.053.284c-9.045.038-16.539-4.833-17.745-11.177l-7,.031.074,8.942c.057,7.159,8.084,12.93,17.93,12.888l78.612-.336c9.848-.042,17.785-5.882,17.726-13.043Z" transform="translate(-515.98 -265.834)" fill="#f97762" opacity="0.25"/>
        </g>
        <g id="Group_16537" data-name="Group 16537" transform="translate(1.489)">
          <g id="Group_16533" data-name="Group 16533">
            <path id="Path_12271" data-name="Path 12271" d="M635.51,276.836l-121.368.713h0c-.139-23.619,20.135-42.884,45.282-43.031l30.3-.179c25.149-.147,45.648,18.878,45.787,42.5Z" transform="translate(-514.142 -234.339)" fill="#ffb6af"/>
            <path id="Path_12272" data-name="Path 12272" d="M635.51,276.836l-121.368.713h0c-.139-23.619,20.135-42.884,45.282-43.031l30.3-.179c25.149-.147,45.648,18.878,45.787,42.5Z" transform="translate(-514.142 -234.339)" fill="#fff6f7" opacity="0.08"/>
          </g>
          <g id="Group_16534" data-name="Group 16534">
            <path id="Path_12273" data-name="Path 12273" d="M635.51,276.836l-121.368.713h0c-.139-23.619,20.135-42.884,45.282-43.031l30.3-.179c25.149-.147,45.648,18.878,45.787,42.5Z" transform="translate(-514.142 -234.339)" fill="#ffac79"/>
          </g>
          <path id="Path_12274" data-name="Path 12274" d="M607.637,236.155l.277.183c12.263,8.166,6.266,27.375-8.465,27.461l-54.5.32c-10.748.063-16.942-12.488-10.083-20.762a35.554,35.554,0,0,1,8.869-7.645c-17.373,6.111-29.7,21.893-29.59,40.326l121.368-.713C635.407,257.673,623.928,242.589,607.637,236.155Z" transform="translate(-514.142 -232.826)" fill="#f97762" opacity="0.25"/>
          <g id="Group_16536" data-name="Group 16536" transform="translate(38.327 4.586)">
            <g id="Group_16535" data-name="Group 16535">
              <path id="Path_12275" data-name="Path 12275" d="M542.957,241.528c-1.24,0-2.48-.284-2.537-1.114-.065-.965,1.549-1.423,2.953-1.522s3.071.126,3.138,1.091h0c.071.963-1.547,1.423-2.953,1.524C543.361,241.52,543.161,241.528,542.957,241.528Zm-1.272-1.2a6.292,6.292,0,0,0,3.565-.252,6.285,6.285,0,0,0-3.565.252Z" transform="translate(-523.511 -233.928)" fill="#f8f8ee"/>
              <path id="Path_12276" data-name="Path 12276" d="M551.9,243.874c-1.238,0-2.478-.286-2.537-1.114-.023-.324.139-.784,1.034-1.133a7.624,7.624,0,0,1,3.876-.275c.938.221,1.16.652,1.184.977v0c.065.963-1.549,1.421-2.953,1.52C552.3,243.865,552.1,243.874,551.9,243.874Zm-1.274-1.2a5.392,5.392,0,0,0,1.8.132,5.333,5.333,0,0,0,1.766-.385,6.347,6.347,0,0,0-3.567.252Z" transform="translate(-513.66 -231.346)" fill="#f8f8ee"/>
              <path id="Path_12277" data-name="Path 12277" d="M549.594,239.235c-1.24,0-2.48-.284-2.537-1.112-.025-.324.137-.784,1.032-1.133a6.726,6.726,0,0,1,1.921-.391c1.4-.1,3.071.126,3.138,1.091.025.324-.137.784-1.032,1.133a6.726,6.726,0,0,1-1.921.391C550,239.226,549.8,239.235,549.594,239.235Zm-1.276-1.2a5.2,5.2,0,0,0,1.8.132,5.345,5.345,0,0,0,1.766-.385,6.3,6.3,0,0,0-3.569.252Z" transform="translate(-516.197 -236.456)" fill="#f8f8ee"/>
              <path id="Path_12278" data-name="Path 12278" d="M534.915,244.043c-1.24,0-2.48-.284-2.537-1.114-.025-.324.137-.782,1.032-1.131a6.742,6.742,0,0,1,1.921-.391,6.938,6.938,0,0,1,1.957.116c.935.219,1.16.652,1.181.975h0c.025.324-.137.784-1.032,1.133a6.874,6.874,0,0,1-1.921.391C535.318,244.034,535.116,244.043,534.915,244.043Zm-1.274-1.2a6.3,6.3,0,0,0,3.567-.252,5.207,5.207,0,0,0-1.8-.132A5.33,5.33,0,0,0,533.641,242.84Z" transform="translate(-532.375 -231.158)" fill="#f8f8ee"/>
              <path id="Path_12279" data-name="Path 12279" d="M535.379,239.179c-1.24,0-2.48-.286-2.537-1.114-.025-.324.137-.784,1.032-1.133a7.629,7.629,0,0,1,3.878-.275c.935.221,1.16.652,1.181.977h0c.025.324-.137.784-1.032,1.133a6.819,6.819,0,0,1-1.921.389C535.783,239.17,535.583,239.179,535.379,239.179Zm-1.276-1.2a6.3,6.3,0,0,0,3.569-.252,5.285,5.285,0,0,0-1.8-.13A5.411,5.411,0,0,0,534.1,237.974Z" transform="translate(-531.862 -236.52)" fill="#f8f8ee"/>
            </g>
          </g>
        </g>
      </g>
      <g id="Group_16563" data-name="Group 16563" transform="translate(99.319 162.855)">
        <path id="Rectangle_17360" data-name="Rectangle 17360" d="M3.507,0h167a3.507,3.507,0,0,1,3.507,3.507V25.568a7.821,7.821,0,0,1-7.821,7.821H7.821A7.821,7.821,0,0,1,0,25.568V3.507A3.507,3.507,0,0,1,3.507,0Z" transform="translate(1.592 39.626)" fill="#353535"/>
        <g id="Group_16544" data-name="Group 16544" transform="translate(14.129)">
          <g id="Group_16540" data-name="Group 16540">
            <path id="Path_12280" data-name="Path 12280" d="M582.968,247.984l-13.9,23.993a12.252,12.252,0,0,0,10.647,18.378h27.8a12.253,12.253,0,0,0,10.649-18.378l-13.9-23.993A12.317,12.317,0,0,0,582.968,247.984Z" transform="translate(-567.403 -241.858)" fill="#e0e0e0"/>
            <g id="Group_16539" data-name="Group 16539" transform="translate(4.732 7.743)">
              <path id="Path_12281" data-name="Path 12281" d="M572.14,257.356a.269.269,0,0,1-.185-.076,3.672,3.672,0,0,1-1.053-2.016,1.535,1.535,0,0,1,.42-1.152,1.021,1.021,0,0,1,.767-.3,1.182,1.182,0,0,1,.706.355,1.391,1.391,0,0,1,.177-.471,1.415,1.415,0,0,1,1.8-.425,3.075,3.075,0,0,1,.916.75,2.6,2.6,0,0,0,.759.633.263.263,0,1,1-.225.475,3.072,3.072,0,0,1-.917-.748,2.589,2.589,0,0,0-.759-.633.9.9,0,0,0-1.129.221,1.6,1.6,0,0,0-.109.982.262.262,0,0,1-.5.153c-.17-.366-.469-.744-.767-.767a.4.4,0,0,0-.355.151.987.987,0,0,0-.265.736,3.109,3.109,0,0,0,.9,1.684.263.263,0,0,1-.185.45Z" transform="translate(-568.284 -237.189)" fill="#390028" opacity="0.11"/>
              <path id="Path_12282" data-name="Path 12282" d="M570.66,260.123a.256.256,0,0,1-.181-.071,2.749,2.749,0,0,1-.782-1.415,1.19,1.19,0,0,1,.109-.927.982.982,0,0,1,1.238-.288,2.519,2.519,0,0,1,.845.767.264.264,0,0,1-.412.33,2.048,2.048,0,0,0-.652-.62.479.479,0,0,0-.582.1.767.767,0,0,0-.034.532,2.22,2.22,0,0,0,.631,1.141.262.262,0,0,1-.181.452Z" transform="translate(-569.655 -232.561)" fill="#390028" opacity="0.11"/>
              <path id="Path_12283" data-name="Path 12283" d="M580.384,254.785a.265.265,0,0,1-.25-.181,3.373,3.373,0,0,0-.668-1.175,1.208,1.208,0,0,0-.61-.427.673.673,0,0,0-.692.33.764.764,0,0,0,.072.822.259.259,0,0,1-.038.368.263.263,0,0,1-.368-.036,1.287,1.287,0,0,1-.126-1.41,1.193,1.193,0,0,1,1.261-.586,1.666,1.666,0,0,1,.9.593,3.976,3.976,0,0,1,.776,1.358.268.268,0,0,1-.168.334A.379.379,0,0,1,580.384,254.785Z" transform="translate(-560.954 -237.91)" fill="#390028" opacity="0.11"/>
              <path id="Path_12284" data-name="Path 12284" d="M578.089,260.487a.266.266,0,0,1-.256-.2,10.958,10.958,0,0,1-.263-1.831c-.034-.6.2-.826.4-.908a.768.768,0,0,1,.526.006,3.031,3.031,0,0,1,.7.317,1.275,1.275,0,0,1,.708-.965,2.013,2.013,0,0,1,1.885.351c.189.13.37.28.551.427a4.771,4.771,0,0,0,.832.593.263.263,0,0,1,.116.353.259.259,0,0,1-.353.116,5.105,5.105,0,0,1-.929-.658c-.168-.137-.336-.275-.515-.4a1.558,1.558,0,0,0-1.379-.3.769.769,0,0,0-.4.589.507.507,0,0,0,.065.355c.034.031.063.065.094.1a.262.262,0,0,1-.359.38.842.842,0,0,1-.13-.13,2.641,2.641,0,0,0-1.041-.622c-.031-.011-.132-.048-.168-.025s-.095.135-.08.4a9.763,9.763,0,0,0,.252,1.741.267.267,0,0,1-.2.315A.3.3,0,0,1,578.089,260.487Z" transform="translate(-560.936 -233.15)" fill="#390028" opacity="0.11"/>
              <path id="Path_12285" data-name="Path 12285" d="M581.118,248.936a.263.263,0,0,1-.259-.221,5.212,5.212,0,0,1,.034-1.841,1.507,1.507,0,0,1,.576-1.019,1.152,1.152,0,0,1,1.286.13,2.179,2.179,0,0,1,.429.465,1.721,1.721,0,0,1,.5-.534,2.079,2.079,0,0,1,1.577-.336,4.125,4.125,0,0,1,2.2,1.585.262.262,0,1,1-.408.33,3.676,3.676,0,0,0-1.9-1.4,1.533,1.533,0,0,0-1.171.252,1.1,1.1,0,0,0-.481.74.262.262,0,0,1-.488.092,2.69,2.69,0,0,0-.584-.778.634.634,0,0,0-.683-.1,1,1,0,0,0-.341.679,4.715,4.715,0,0,0-.034,1.656.26.26,0,0,1-.216.3Z" transform="translate(-557.379 -245.541)" fill="#390028" opacity="0.11"/>
              <path id="Path_12286" data-name="Path 12286" d="M586.57,259.76a.267.267,0,0,1-.246-.166,3.571,3.571,0,0,1-.217-1.7c.051-.443.276-.933.746-.986a.858.858,0,0,1,.578.158,4.594,4.594,0,0,1,1.652,1.587.263.263,0,0,1-.086.362.258.258,0,0,1-.362-.086,4.075,4.075,0,0,0-1.463-1.406.568.568,0,0,0-.261-.093c-.147.017-.256.284-.284.526a3.012,3.012,0,0,0,.185,1.448.265.265,0,0,1-.244.359Z" transform="translate(-551.549 -233.026)" fill="#390028" opacity="0.11"/>
            </g>
          </g>
          <path id="Path_12287" data-name="Path 12287" d="M599.173,280.556H574.031a.262.262,0,0,1-.263-.263V258.6a7.625,7.625,0,0,1,7.618-7.616H591.82a7.624,7.624,0,0,1,7.616,7.616v21.689A.262.262,0,0,1,599.173,280.556Zm-24.88-.526h24.617V258.6a7.1,7.1,0,0,0-7.09-7.09H581.386a7.1,7.1,0,0,0-7.092,7.09Z" transform="translate(-560.389 -231.794)" fill="#390028" opacity="0.11"/>
          <g id="Group_16541" data-name="Group 16541" transform="translate(13.641 19.458)">
            <path id="Rectangle_17361" data-name="Rectangle 17361" d="M3.5,0H21.646a3.5,3.5,0,0,1,3.5,3.5V29.04a0,0,0,0,1,0,0H0a0,0,0,0,1,0,0V3.5A3.5,3.5,0,0,1,3.5,0Z" fill="#390028"/>
          </g>
          <g id="Group_16542" data-name="Group 16542" transform="translate(17.032 9.71)" opacity="0.11">
            <path id="Path_12288" data-name="Path 12288" d="M578.436,247.726a.624.624,0,1,1,.624-.624A.622.622,0,0,1,578.436,247.726Zm0-.723a.1.1,0,0,0-.1.1c0,.111.2.114.2,0A.1.1,0,0,0,578.436,247Z" transform="translate(-572.962 -246.477)" fill="#390028"/>
            <path id="Path_12289" data-name="Path 12289" d="M576.133,248.837a.623.623,0,1,1,.624-.622A.626.626,0,0,1,576.133,248.837Zm0-.721a.1.1,0,0,0-.1.1c0,.1.2.109.2,0A.1.1,0,0,0,576.133,248.116Z" transform="translate(-575.506 -245.25)" fill="#390028"/>
            <path id="Path_12290" data-name="Path 12290" d="M578.457,249.873a.985.985,0,1,1,.984-.984A.987.987,0,0,1,578.457,249.873Zm0-1.444a.459.459,0,1,0,.458.46A.462.462,0,0,0,578.457,248.428Z" transform="translate(-573.343 -244.905)" fill="#390028"/>
          </g>
          <g id="Group_16543" data-name="Group 16543" transform="translate(40.507 33.714)" opacity="0.11">
            <path id="Path_12291" data-name="Path 12291" d="M589.782,259.764a.623.623,0,1,1,.481-.223h0A.628.628,0,0,1,589.782,259.764Zm.28-.391h0Zm-.277-.33a.1.1,0,0,0-.078.036.1.1,0,0,0,.013.139.109.109,0,0,0,.141-.013.1.1,0,0,0-.013-.141A.108.108,0,0,0,589.784,259.043Z" transform="translate(-583.933 -257.211)" fill="#390028"/>
            <path id="Path_12292" data-name="Path 12292" d="M587.3,259.142a.636.636,0,0,1-.4-.141.625.625,0,0,1-.221-.422.608.608,0,0,1,.143-.458.622.622,0,0,1,.879-.078.61.61,0,0,1,.223.42.637.637,0,0,1-.141.458l0,0A.619.619,0,0,1,587.3,259.142Zm.28-.389h0Zm-.28-.33a.092.092,0,0,0-.076.034.1.1,0,0,0-.023.074.09.09,0,0,0,.034.063.1.1,0,1,0,.128-.147A.094.094,0,0,0,587.3,258.423Z" transform="translate(-586.674 -257.896)" fill="#390028"/>
            <path id="Path_12293" data-name="Path 12293" d="M588.813,261.429a.99.99,0,0,1-.633-.229.983.983,0,0,1-.124-1.385,1,1,0,0,1,1.392-.124.984.984,0,0,1,.349.668.966.966,0,0,1-.227.717A.978.978,0,0,1,588.813,261.429Zm0-1.442a.46.46,0,0,0-.3.811.463.463,0,0,0,.652-.059.458.458,0,0,0-.353-.753Z" transform="translate(-585.402 -256.17)" fill="#390028"/>
          </g>
        </g>
        <g id="Group_16547" data-name="Group 16547" transform="translate(114.183 5.956)">
          <rect id="Rectangle_17362" data-name="Rectangle 17362" width="51.765" height="21.284" rx="3.233" transform="translate(4.38 11.741)" fill="#f8f8ee"/>
          <g id="Group_16545" data-name="Group 16545" transform="translate(9.989 20.283)">
            <path id="Path_12294" data-name="Path 12294" d="M622.311,259.367a.261.261,0,0,1-.185-.076,3.731,3.731,0,0,1-1.085-2.077,1.555,1.555,0,0,1,.429-1.177.97.97,0,0,1,.786-.311,1.206,1.206,0,0,1,.734.372,1.341,1.341,0,0,1,2.031-.929,3.129,3.129,0,0,1,.942.771,2.74,2.74,0,0,0,.784.654.263.263,0,1,1-.225.475,3.131,3.131,0,0,1-.942-.771,2.7,2.7,0,0,0-.784-.652.93.93,0,0,0-1.173.231,1.639,1.639,0,0,0-.116,1.017.261.261,0,0,1-.183.294.258.258,0,0,1-.313-.143c-.174-.376-.488-.769-.795-.795a.429.429,0,0,0-.374.158,1.011,1.011,0,0,0-.275.765,3.207,3.207,0,0,0,.927,1.743.263.263,0,0,1-.183.45Z" transform="translate(-618.34 -253.597)" fill="#390028" opacity="0.11"/>
            <path id="Path_12295" data-name="Path 12295" d="M620.782,260.168a.274.274,0,0,1-.181-.071,2.834,2.834,0,0,1-.805-1.453,1.244,1.244,0,0,1,.114-.954,1.008,1.008,0,0,1,1.27-.29,2.555,2.555,0,0,1,.866.788.263.263,0,0,1-.412.328,2.1,2.1,0,0,0-.677-.641.5.5,0,0,0-.608.1.809.809,0,0,0-.038.559,2.3,2.3,0,0,0,.652,1.177.263.263,0,0,1-.181.454Z" transform="translate(-619.754 -251.085)" fill="#390028" opacity="0.11"/>
            <path id="Path_12296" data-name="Path 12296" d="M630.809,256.717a.265.265,0,0,1-.25-.181,3.471,3.471,0,0,0-.689-1.213,1.216,1.216,0,0,0-.635-.446.687.687,0,0,0-.721.345.8.8,0,0,0,.073.856.263.263,0,1,1-.408.332,1.319,1.319,0,0,1-.126-1.444,1.213,1.213,0,0,1,1.293-.6,1.713,1.713,0,0,1,.918.612,3.985,3.985,0,0,1,.795,1.4.263.263,0,0,1-.168.332A.268.268,0,0,1,630.809,256.717Z" transform="translate(-610.782 -254.34)" fill="#390028" opacity="0.11"/>
            <path id="Path_12297" data-name="Path 12297" d="M628.443,260.544a.264.264,0,0,1-.256-.2,11,11,0,0,1-.271-1.886c-.034-.616.2-.847.408-.931a.812.812,0,0,1,.538.006,3.276,3.276,0,0,1,.729.334,1.326,1.326,0,0,1,.727-1,2.072,2.072,0,0,1,1.936.362c.193.135.38.286.568.439a4.97,4.97,0,0,0,.86.612.262.262,0,0,1,.116.353.258.258,0,0,1-.353.113,5.36,5.36,0,0,1-.954-.673c-.177-.143-.351-.288-.536-.414a1.618,1.618,0,0,0-1.427-.313.809.809,0,0,0-.418.614.538.538,0,0,0,.069.37l.1.1a.263.263,0,0,1-.357.385,1.062,1.062,0,0,1-.137-.139,2.76,2.76,0,0,0-1.074-.643.558.558,0,0,0-.183-.023c-.042.017-.1.143-.084.416a10.355,10.355,0,0,0,.259,1.8.264.264,0,0,1-.2.317A.268.268,0,0,1,628.443,260.544Z" transform="translate(-610.763 -251.692)" fill="#390028" opacity="0.11"/>
            <path id="Path_12298" data-name="Path 12298" d="M635.228,257.833a.26.26,0,0,1-.259-.223,5.463,5.463,0,0,1,.031-1.894,1.541,1.541,0,0,1,.591-1.045,1.164,1.164,0,0,1,1.316.135,2.138,2.138,0,0,1,.448.488,1.789,1.789,0,0,1,.521-.561,2.109,2.109,0,0,1,1.621-.345,4.23,4.23,0,0,1,2.264,1.631.261.261,0,0,1-.038.368.257.257,0,0,1-.368-.036,3.779,3.779,0,0,0-1.963-1.45,1.629,1.629,0,0,0-1.213.261,1.14,1.14,0,0,0-.5.771.266.266,0,0,1-.212.219.278.278,0,0,1-.277-.126,2.673,2.673,0,0,0-.6-.8.676.676,0,0,0-.717-.107,1.041,1.041,0,0,0-.353.7,4.919,4.919,0,0,0-.031,1.709.262.262,0,0,1-.219.3Z" transform="translate(-603.06 -254.333)" fill="#390028" opacity="0.11"/>
            <path id="Path_12299" data-name="Path 12299" d="M637.189,259.794a.261.261,0,0,1-.244-.166,3.621,3.621,0,0,1-.227-1.751c.052-.454.284-.956.763-1.011a.919.919,0,0,1,.586.16,4.7,4.7,0,0,1,1.7,1.638.263.263,0,0,1-.448.275,4.173,4.173,0,0,0-1.511-1.455.67.67,0,0,0-.273-.1c-.156.019-.269.29-.3.551a3.123,3.123,0,0,0,.193,1.5.263.263,0,0,1-.147.341A.271.271,0,0,1,637.189,259.794Z" transform="translate(-601.086 -251.564)" fill="#390028" opacity="0.11"/>
          </g>
          <g id="Group_16546" data-name="Group 16546">
            <rect id="Rectangle_17363" data-name="Rectangle 17363" width="60.525" height="17.706" rx="3.233" fill="#ff7664"/>
            <rect id="Rectangle_17364" data-name="Rectangle 17364" width="4.314" height="17.706" transform="translate(7.635)" fill="#f94a3d"/>
            <rect id="Rectangle_17365" data-name="Rectangle 17365" width="4.314" height="17.706" transform="translate(20.756)" fill="#f94a3d"/>
            <rect id="Rectangle_17366" data-name="Rectangle 17366" width="4.314" height="17.706" transform="translate(34.596)" fill="#f94a3d"/>
            <rect id="Rectangle_17367" data-name="Rectangle 17367" width="4.314" height="17.706" transform="translate(48.157)" fill="#f94a3d"/>
          </g>
        </g>
        <g id="Group_16550" data-name="Group 16550" transform="translate(67.814 7.648)">
          <rect id="Rectangle_17368" data-name="Rectangle 17368" width="44.176" height="26.464" transform="translate(0 7.189)" fill="#390028"/>
          <ellipse id="Ellipse_1288" data-name="Ellipse 1288" cx="22.075" cy="7.283" rx="22.075" ry="7.283" transform="translate(0.013)" fill="#f8f8ee"/>
          <path id="Path_12300" data-name="Path 12300" d="M600.305,249.739c0-1.207,2.962-2.182,6.613-2.182s6.613.975,6.613,2.182-2.96,2.18-6.613,2.18S600.305,250.943,600.305,249.739Z" transform="translate(-584.83 -243.224)" fill="#f94a3d"/>
          <path id="Path_12301" data-name="Path 12301" d="M601.1,249.441a.26.26,0,0,1-.259-.221,5.388,5.388,0,0,1,.036-1.9,1.543,1.543,0,0,1,.591-1.045,1.169,1.169,0,0,1,1.314.135,2.2,2.2,0,0,1,.45.488,1.762,1.762,0,0,1,.517-.559,2.152,2.152,0,0,1,1.621-.347,4.257,4.257,0,0,1,2.264,1.631.261.261,0,1,1-.406.33,3.784,3.784,0,0,0-1.963-1.446,1.59,1.59,0,0,0-1.213.261,1.146,1.146,0,0,0-.5.769.264.264,0,0,1-.49.095,2.672,2.672,0,0,0-.605-.805.668.668,0,0,0-.715-.107,1.054,1.054,0,0,0-.353.7,4.876,4.876,0,0,0-.034,1.711.26.26,0,0,1-.219.3Z" transform="translate(-584.318 -244.988)" fill="#390028" opacity="0.11"/>
          <g id="Group_16548" data-name="Group 16548" transform="translate(4.99 2.998)" opacity="0.11">
            <path id="Path_12302" data-name="Path 12302" d="M598.333,248.192a.635.635,0,1,1,.637-.635A.637.637,0,0,1,598.333,248.192Zm0-.744a.11.11,0,0,0-.111.109c0,.118.223.12.223,0A.11.11,0,0,0,598.333,247.448Z" transform="translate(-592.695 -246.922)" fill="#390028"/>
            <path id="Path_12303" data-name="Path 12303" d="M595.954,249.338a.635.635,0,1,1,.637-.633A.636.636,0,0,1,595.954,249.338Zm0-.744a.112.112,0,0,0-.111.111c0,.118.223.118.223,0A.112.112,0,0,0,595.954,248.594Z" transform="translate(-595.317 -245.659)" fill="#390028"/>
            <path id="Path_12304" data-name="Path 12304" d="M598.35,250.406a1.007,1.007,0,1,1,1.011-1.007A1.01,1.01,0,0,1,598.35,250.406Zm0-1.488a.481.481,0,1,0,.486.481A.482.482,0,0,0,598.35,248.918Z" transform="translate(-593.087 -245.302)" fill="#390028"/>
          </g>
          <g id="Group_16549" data-name="Group 16549" transform="translate(30.809 5.447)" opacity="0.11">
            <path id="Path_12305" data-name="Path 12305" d="M610.614,249.357a.635.635,0,1,1,.637-.635A.636.636,0,0,1,610.614,249.357Zm0-.744a.108.108,0,0,0-.109.109c0,.12.221.12.221,0A.11.11,0,0,0,610.614,248.613Z" transform="translate(-604.978 -248.087)" fill="#390028"/>
            <path id="Path_12306" data-name="Path 12306" d="M608.235,250.5a.635.635,0,1,1,.637-.633A.634.634,0,0,1,608.235,250.5Zm0-.744a.11.11,0,0,0-.109.111c0,.118.221.12.221,0A.11.11,0,0,0,608.235,249.759Z" transform="translate(-607.6 -246.824)" fill="#390028"/>
            <path id="Path_12307" data-name="Path 12307" d="M610.634,251.571a1.007,1.007,0,1,1,1.009-1.007A1.011,1.011,0,0,1,610.634,251.571Zm0-1.488a.481.481,0,1,0,.483.481A.484.484,0,0,0,610.634,250.083Z" transform="translate(-605.371 -246.467)" fill="#390028"/>
          </g>
        </g>
        <g id="Group_16553" data-name="Group 16553" transform="translate(110.542 31.415)">
          <rect id="Rectangle_17369" data-name="Rectangle 17369" width="51.765" height="21.284" rx="3.233" transform="translate(4.38 11.741)" fill="#f8f8ee"/>
          <g id="Group_16551" data-name="Group 16551" transform="translate(9.989 20.281)">
            <path id="Path_12308" data-name="Path 12308" d="M620.576,271.477a.259.259,0,0,1-.185-.076,3.74,3.74,0,0,1-1.081-2.075,1.552,1.552,0,0,1,.425-1.175.97.97,0,0,1,.788-.313,1.2,1.2,0,0,1,.734.376,1.335,1.335,0,0,1,2.033-.933,3.12,3.12,0,0,1,.94.769,2.7,2.7,0,0,0,.784.654.263.263,0,0,1,.126.349.26.26,0,0,1-.349.126,3.093,3.093,0,0,1-.942-.769,2.679,2.679,0,0,0-.782-.652.934.934,0,0,0-1.179.229,1.684,1.684,0,0,0-.114,1.019.262.262,0,0,1-.5.151c-.174-.378-.488-.769-.8-.795a.457.457,0,0,0-.376.16,1.016,1.016,0,0,0-.269.761,3.183,3.183,0,0,0,.925,1.743.263.263,0,0,1,0,.372A.26.26,0,0,1,620.576,271.477Z" transform="translate(-616.607 -265.706)" fill="#390028" opacity="0.11"/>
            <path id="Path_12309" data-name="Path 12309" d="M619.052,272.28a.252.252,0,0,1-.181-.071,2.827,2.827,0,0,1-.805-1.45,1.219,1.219,0,0,1,.113-.956,1,1,0,0,1,1.268-.29,2.51,2.51,0,0,1,.866.79.263.263,0,1,1-.414.324,2,2,0,0,0-.673-.637.5.5,0,0,0-.607.1.793.793,0,0,0-.04.557,2.313,2.313,0,0,0,.654,1.181.264.264,0,0,1,.011.37A.26.26,0,0,1,619.052,272.28Z" transform="translate(-618.022 -263.194)" fill="#390028" opacity="0.11"/>
            <path id="Path_12310" data-name="Path 12310" d="M629.077,268.829a.257.257,0,0,1-.248-.181,3.647,3.647,0,0,0-.692-1.215,1.269,1.269,0,0,0-.637-.443.692.692,0,0,0-.721.343.8.8,0,0,0,.074.858.262.262,0,1,1-.406.332,1.335,1.335,0,0,1-.128-1.446,1.213,1.213,0,0,1,1.291-.6,1.731,1.731,0,0,1,.921.609,4.082,4.082,0,0,1,.795,1.4.26.26,0,0,1-.166.33A.227.227,0,0,1,629.077,268.829Z" transform="translate(-609.049 -266.451)" fill="#390028" opacity="0.11"/>
            <path id="Path_12311" data-name="Path 12311" d="M626.711,272.655a.267.267,0,0,1-.259-.2,11.065,11.065,0,0,1-.269-1.886c-.036-.616.2-.845.41-.929a.763.763,0,0,1,.54.008,3.27,3.27,0,0,1,.725.332,1.308,1.308,0,0,1,.727-1,2.076,2.076,0,0,1,1.936.362c.2.135.381.288.566.437a4.871,4.871,0,0,0,.864.616.261.261,0,0,1,.113.353.255.255,0,0,1-.351.116,5.427,5.427,0,0,1-.963-.679c-.172-.141-.347-.284-.528-.412a1.623,1.623,0,0,0-1.427-.311.8.8,0,0,0-.42.614.528.528,0,0,0,.069.37c.031.036.067.069.1.1a.263.263,0,0,1-.359.383.856.856,0,0,1-.137-.139,2.7,2.7,0,0,0-1.072-.639c-.118-.04-.166-.036-.181-.027-.044.019-.1.143-.086.416a10.134,10.134,0,0,0,.259,1.8.265.265,0,0,1-.2.315A.3.3,0,0,1,626.711,272.655Z" transform="translate(-609.031 -263.802)" fill="#390028" opacity="0.11"/>
            <path id="Path_12312" data-name="Path 12312" d="M633.495,269.942a.263.263,0,0,1-.258-.221,5.319,5.319,0,0,1,.038-1.9,1.544,1.544,0,0,1,.586-1.045,1.164,1.164,0,0,1,1.316.137,2.1,2.1,0,0,1,.45.486,1.746,1.746,0,0,1,.519-.559,2.111,2.111,0,0,1,1.619-.345,4.225,4.225,0,0,1,2.266,1.629.263.263,0,0,1-.038.37.258.258,0,0,1-.37-.038,3.77,3.77,0,0,0-1.961-1.448,1.6,1.6,0,0,0-1.213.263,1.144,1.144,0,0,0-.5.767.264.264,0,0,1-.21.221.279.279,0,0,1-.277-.126,2.688,2.688,0,0,0-.605-.8.679.679,0,0,0-.715-.109,1.05,1.05,0,0,0-.355.7,4.87,4.87,0,0,0-.034,1.711.259.259,0,0,1-.217.3Z" transform="translate(-601.329 -266.441)" fill="#390028" opacity="0.11"/>
            <path id="Path_12313" data-name="Path 12313" d="M635.454,271.9a.265.265,0,0,1-.244-.166,3.626,3.626,0,0,1-.223-1.751c.053-.454.282-.956.761-1.009a.919.919,0,0,1,.586.158,4.714,4.714,0,0,1,1.7,1.637.265.265,0,0,1-.086.362.259.259,0,0,1-.362-.086,4.191,4.191,0,0,0-1.514-1.453.615.615,0,0,0-.273-.1c-.153.017-.267.288-.3.549a3.072,3.072,0,0,0,.191,1.5.261.261,0,0,1-.149.341A.256.256,0,0,1,635.454,271.9Z" transform="translate(-599.353 -263.673)" fill="#390028" opacity="0.11"/>
          </g>
          <g id="Group_16552" data-name="Group 16552">
            <rect id="Rectangle_17370" data-name="Rectangle 17370" width="60.525" height="17.706" rx="3.233" fill="#ff7664"/>
            <rect id="Rectangle_17371" data-name="Rectangle 17371" width="4.314" height="17.706" transform="translate(7.635)" fill="#f94a3d"/>
            <rect id="Rectangle_17372" data-name="Rectangle 17372" width="4.314" height="17.706" transform="translate(20.756)" fill="#f94a3d"/>
            <rect id="Rectangle_17373" data-name="Rectangle 17373" width="4.314" height="17.706" transform="translate(34.596)" fill="#f94a3d"/>
            <rect id="Rectangle_17374" data-name="Rectangle 17374" width="4.314" height="17.706" transform="translate(48.156)" fill="#f94a3d"/>
          </g>
        </g>
        <g id="Group_16556" data-name="Group 16556" transform="translate(64.284 27.587)">
          <rect id="Rectangle_17375" data-name="Rectangle 17375" width="44.176" height="26.464" transform="translate(0 7.189)" fill="#390028"/>
          <ellipse id="Ellipse_1289" data-name="Ellipse 1289" cx="22.075" cy="7.283" rx="22.075" ry="7.283" transform="translate(0.013)" fill="#f8f8ee"/>
          <path id="Path_12314" data-name="Path 12314" d="M598.626,259.224c0-1.2,2.96-2.182,6.613-2.182s6.613.977,6.613,2.182-2.962,2.182-6.613,2.182S598.626,260.431,598.626,259.224Z" transform="translate(-583.151 -252.711)" fill="#f94a3d"/>
          <path id="Path_12315" data-name="Path 12315" d="M599.418,258.928a.262.262,0,0,1-.258-.223,5.222,5.222,0,0,1,.036-1.9,1.536,1.536,0,0,1,.586-1.045,1.186,1.186,0,0,1,1.318.132,2.25,2.25,0,0,1,.45.49,1.745,1.745,0,0,1,.519-.559,2.114,2.114,0,0,1,1.618-.345,4.222,4.222,0,0,1,2.264,1.627.263.263,0,0,1-.406.334A3.783,3.783,0,0,0,603.584,256a1.63,1.63,0,0,0-1.215.261,1.154,1.154,0,0,0-.5.769.266.266,0,0,1-.21.221.283.283,0,0,1-.277-.128,2.714,2.714,0,0,0-.6-.805.685.685,0,0,0-.717-.105,1.044,1.044,0,0,0-.355.7,4.779,4.779,0,0,0-.031,1.711.261.261,0,0,1-.217.3Z" transform="translate(-582.639 -254.475)" fill="#390028" opacity="0.11"/>
          <g id="Group_16554" data-name="Group 16554" transform="translate(4.99 2.996)" opacity="0.11">
            <path id="Path_12316" data-name="Path 12316" d="M596.652,257.679a.636.636,0,1,1,.637-.635A.636.636,0,0,1,596.652,257.679Zm0-.746a.11.11,0,0,0-.109.111c0,.12.221.124.221,0A.111.111,0,0,0,596.652,256.933Z" transform="translate(-591.016 -256.407)" fill="#390028"/>
            <path id="Path_12317" data-name="Path 12317" d="M594.273,258.823a.634.634,0,1,1,.637-.635A.636.636,0,0,1,594.273,258.823Zm0-.742a.108.108,0,0,0-.109.107c0,.12.221.124.221,0A.107.107,0,0,0,594.273,258.081Z" transform="translate(-593.638 -255.142)" fill="#390028"/>
            <path id="Path_12318" data-name="Path 12318" d="M596.672,259.892a1.007,1.007,0,1,1,1.009-1.009A1.011,1.011,0,0,1,596.672,259.892Zm0-1.488a.481.481,0,1,0,.483.479A.483.483,0,0,0,596.672,258.4Z" transform="translate(-591.409 -254.786)" fill="#390028"/>
          </g>
          <g id="Group_16555" data-name="Group 16555" transform="translate(30.81 5.445)" opacity="0.11">
            <path id="Path_12319" data-name="Path 12319" d="M608.935,258.844a.636.636,0,1,1,.635-.635A.636.636,0,0,1,608.935,258.844Zm0-.746a.109.109,0,0,0-.109.111c0,.122.219.124.219,0A.11.11,0,0,0,608.935,258.1Z" transform="translate(-603.299 -257.572)" fill="#390028"/>
            <path id="Path_12320" data-name="Path 12320" d="M606.558,259.988a.634.634,0,1,1,.635-.633A.636.636,0,0,1,606.558,259.988Zm0-.742a.108.108,0,0,0-.111.109c0,.122.221.118.221,0A.109.109,0,0,0,606.558,259.246Z" transform="translate(-605.921 -256.307)" fill="#390028"/>
            <path id="Path_12321" data-name="Path 12321" d="M608.955,261.057a1.007,1.007,0,1,1,1.007-1.007A1.011,1.011,0,0,1,608.955,261.057Zm0-1.488a.481.481,0,1,0,.481.481A.485.485,0,0,0,608.955,259.569Z" transform="translate(-603.692 -255.951)" fill="#390028"/>
          </g>
        </g>
        <g id="Group_16562" data-name="Group 16562" transform="translate(5.339 17.172)">
          <g id="Group_16558" data-name="Group 16558">
            <path id="Path_12322" data-name="Path 12322" d="M579.271,256.342l-14.332,24.739a12.633,12.633,0,0,0,10.979,18.95H604.58a12.634,12.634,0,0,0,10.981-18.95l-14.332-24.739A12.7,12.7,0,0,0,579.271,256.342Z" transform="translate(-563.222 -250.027)" fill="#fff"/>
            <g id="Group_16557" data-name="Group 16557" transform="translate(4.885 7.992)">
              <path id="Path_12323" data-name="Path 12323" d="M568.1,265.993a.261.261,0,0,1-.185-.076,3.731,3.731,0,0,1-1.083-2.073,1.553,1.553,0,0,1,.427-1.177.983.983,0,0,1,.786-.313,1.224,1.224,0,0,1,.736.376,1.412,1.412,0,0,1,.183-.5,1.454,1.454,0,0,1,1.848-.433,3.129,3.129,0,0,1,.942.771,2.739,2.739,0,0,0,.784.654.263.263,0,0,1-.225.475,3.128,3.128,0,0,1-.942-.771,2.74,2.74,0,0,0-.784-.654.94.94,0,0,0-1.175.233,1.621,1.621,0,0,0-.114,1.017.261.261,0,0,1-.5.151c-.177-.376-.49-.771-.8-.795a.417.417,0,0,0-.374.16,1.007,1.007,0,0,0-.273.763,3.206,3.206,0,0,0,.925,1.74.263.263,0,0,1-.183.45Z" transform="translate(-564.131 -245.217)" fill="#390028" opacity="0.11"/>
              <path id="Path_12324" data-name="Path 12324" d="M566.576,268.85a.273.273,0,0,1-.181-.071,2.847,2.847,0,0,1-.805-1.455,1.219,1.219,0,0,1,.113-.954,1.009,1.009,0,0,1,1.268-.292,2.575,2.575,0,0,1,.866.788.264.264,0,0,1-.412.33,2.172,2.172,0,0,0-.675-.641.5.5,0,0,0-.608.105.774.774,0,0,0-.04.555,2.311,2.311,0,0,0,.654,1.181.265.265,0,0,1,.01.372A.261.261,0,0,1,566.576,268.85Z" transform="translate(-565.546 -240.445)" fill="#390028" opacity="0.11"/>
              <path id="Path_12325" data-name="Path 12325" d="M576.6,263.346a.263.263,0,0,1-.248-.181,3.589,3.589,0,0,0-.694-1.217,1.225,1.225,0,0,0-.633-.441.707.707,0,0,0-.723.343.8.8,0,0,0,.076.858.263.263,0,1,1-.408.332,1.335,1.335,0,0,1-.126-1.446,1.209,1.209,0,0,1,1.291-.6,1.716,1.716,0,0,1,.919.612,4.1,4.1,0,0,1,.795,1.4.258.258,0,0,1-.166.33A.219.219,0,0,1,576.6,263.346Z" transform="translate(-556.572 -245.961)" fill="#390028" opacity="0.11"/>
              <path id="Path_12326" data-name="Path 12326" d="M574.235,269.224a.264.264,0,0,1-.256-.2,11.283,11.283,0,0,1-.271-1.888c-.034-.616.206-.845.41-.929a.792.792,0,0,1,.536.006,3.273,3.273,0,0,1,.729.334,1.309,1.309,0,0,1,.729-1,2.054,2.054,0,0,1,1.936.362c.191.135.376.286.561.435a4.853,4.853,0,0,0,.866.616.263.263,0,0,1,.116.353.26.26,0,0,1-.353.116,5.42,5.42,0,0,1-.963-.677c-.172-.143-.345-.284-.528-.412a1.618,1.618,0,0,0-1.427-.311.806.806,0,0,0-.42.614.539.539,0,0,0,.069.37l.1.1a.263.263,0,0,1-.357.383.927.927,0,0,1-.137-.137,2.735,2.735,0,0,0-1.074-.643.489.489,0,0,0-.181-.025c-.042.019-.1.145-.086.418a10.422,10.422,0,0,0,.259,1.8.264.264,0,0,1-.2.317A.507.507,0,0,1,574.235,269.224Z" transform="translate(-556.555 -241.055)" fill="#390028" opacity="0.11"/>
              <path id="Path_12327" data-name="Path 12327" d="M577.359,257.311a.26.26,0,0,1-.259-.221,5.325,5.325,0,0,1,.036-1.9,1.539,1.539,0,0,1,.589-1.045,1.178,1.178,0,0,1,1.314.135,2.188,2.188,0,0,1,.45.488,1.773,1.773,0,0,1,.519-.559,2.136,2.136,0,0,1,1.621-.345,4.232,4.232,0,0,1,2.264,1.629.261.261,0,0,1-.038.37.255.255,0,0,1-.368-.038,3.8,3.8,0,0,0-1.963-1.448,1.628,1.628,0,0,0-1.211.261,1.151,1.151,0,0,0-.5.771.257.257,0,0,1-.21.219.271.271,0,0,1-.278-.126,2.642,2.642,0,0,0-.6-.8.672.672,0,0,0-.715-.109,1.031,1.031,0,0,0-.355.7,4.926,4.926,0,0,0-.034,1.711.258.258,0,0,1-.217.3Z" transform="translate(-552.887 -253.828)" fill="#390028" opacity="0.11"/>
              <path id="Path_12328" data-name="Path 12328" d="M582.98,268.474a.268.268,0,0,1-.246-.168,3.615,3.615,0,0,1-.223-1.749c.053-.454.284-.958.761-1.011a.914.914,0,0,1,.589.158,4.712,4.712,0,0,1,1.7,1.64.262.262,0,0,1-.448.273,4.169,4.169,0,0,0-1.511-1.453.66.66,0,0,0-.273-.1c-.153.019-.267.29-.3.551a3.1,3.1,0,0,0,.191,1.5.264.264,0,0,1-.147.341A.272.272,0,0,1,582.98,268.474Z" transform="translate(-546.877 -240.925)" fill="#390028" opacity="0.11"/>
            </g>
          </g>
          <path id="Path_12329" data-name="Path 12329" d="M595.975,289.914H570.051a.261.261,0,0,1-.263-.263V267.063a7.625,7.625,0,0,1,7.616-7.618h11.219a7.625,7.625,0,0,1,7.616,7.618v22.589A.261.261,0,0,1,595.975,289.914Zm-25.662-.526h25.4V267.063a7.1,7.1,0,0,0-7.09-7.092H577.4a7.1,7.1,0,0,0-7.09,7.092Z" transform="translate(-555.986 -239.647)" fill="#390028" opacity="0.11"/>
          <g id="Group_16559" data-name="Group 16559" transform="translate(14.064 20.062)">
            <path id="Rectangle_17376" data-name="Rectangle 17376" d="M3.5,0H22.427a3.5,3.5,0,0,1,3.5,3.5V29.943a0,0,0,0,1,0,0H0a0,0,0,0,1,0,0V3.5A3.5,3.5,0,0,1,3.5,0Z" fill="#390028"/>
          </g>
          <g id="Group_16560" data-name="Group 16560" transform="translate(17.569 10.022)" opacity="0.11">
            <path id="Path_12330" data-name="Path 12330" d="M574.6,256.062a.634.634,0,1,1,.635-.633A.636.636,0,0,1,574.6,256.062Zm0-.742a.108.108,0,0,0-.112.109c0,.118.221.12.221,0A.11.11,0,0,0,574.6,255.32Z" transform="translate(-568.958 -254.794)" fill="#390028"/>
            <path id="Path_12331" data-name="Path 12331" d="M572.217,257.212a.636.636,0,1,1,.635-.635A.637.637,0,0,1,572.217,257.212Zm0-.746a.112.112,0,0,0-.111.111c0,.124.221.12.221,0A.11.11,0,0,0,572.217,256.466Z" transform="translate(-571.58 -253.531)" fill="#390028"/>
            <path id="Path_12332" data-name="Path 12332" d="M574.613,258.278a1.007,1.007,0,1,1,1.009-1.007A1.009,1.009,0,0,1,574.613,258.278Zm0-1.488a.481.481,0,1,0,.484.481A.482.482,0,0,0,574.613,256.79Z" transform="translate(-569.35 -253.174)" fill="#390028"/>
          </g>
          <g id="Group_16561" data-name="Group 16561" transform="translate(41.774 34.772)" opacity="0.11">
            <path id="Path_12333" data-name="Path 12333" d="M586.293,268.479a.633.633,0,0,1-.406-.149.635.635,0,1,1,1.041-.544.632.632,0,0,1-.147.465v0A.642.642,0,0,1,586.293,268.479Zm.288-.4h0Zm-.288-.349a.109.109,0,0,0-.084.04.106.106,0,0,0-.025.08.109.109,0,0,0,.04.076.114.114,0,0,0,.156-.015.121.121,0,0,0-.015-.153A.118.118,0,0,0,586.293,267.733Z" transform="translate(-580.272 -265.863)" fill="#390028"/>
            <path id="Path_12334" data-name="Path 12334" d="M583.729,267.837a.636.636,0,1,1,.408-1.125.635.635,0,0,1,.08.9.627.627,0,0,1-.431.225Zm0-.746a.11.11,0,0,0-.086.042.108.108,0,0,0,.017.153.125.125,0,0,0,.156-.015v0a.106.106,0,0,0-.015-.153A.11.11,0,0,0,583.729,267.091Z" transform="translate(-583.095 -266.569)" fill="#390028"/>
            <path id="Path_12335" data-name="Path 12335" d="M585.294,270.194a.989.989,0,0,1-.647-.235,1,1,0,0,1-.126-1.417,1.013,1.013,0,0,1,1.421-.128,1.009,1.009,0,0,1,.126,1.421v0A1.015,1.015,0,0,1,585.294,270.194Zm0-1.486a.488.488,0,0,0-.374.172.476.476,0,0,0-.111.349.485.485,0,0,0,.854.269.484.484,0,0,0-.059-.681A.491.491,0,0,0,585.3,268.708Zm.57.958h0Z" transform="translate(-581.786 -264.791)" fill="#390028"/>
          </g>
        </g>
        <path id="Path_12336" data-name="Path 12336" d="M725.318,283.46H573.778a13.1,13.1,0,0,1-13.1-13.1H738.414A13.1,13.1,0,0,1,725.318,283.46Z" transform="translate(-560.682 -210.444)" fill="#23aa49"/>
      </g>
    </g>
    <g id="Group_16566" data-name="Group 16566" transform="translate(505.872 150.885)">
      <g id="Group_16565" data-name="Group 16565">
        <path id="Path_12337" data-name="Path 12337" d="M528.948,219.621a1.653,1.653,0,1,1-1.654-1.629A1.643,1.643,0,0,1,528.948,219.621Z" transform="translate(-478.07 -76.93)" fill="#f9b361"/>
        <path id="Path_12338" data-name="Path 12338" d="M556.3,156.708a1.653,1.653,0,1,1-1.652-1.629A1.641,1.641,0,0,1,556.3,156.708Z" transform="translate(-447.93 -146.263)" fill="#f9b361"/>
        <path id="Path_12339" data-name="Path 12339" d="M644.724,210.61a1.653,1.653,0,1,1-1.652-1.629A1.641,1.641,0,0,1,644.724,210.61Z" transform="translate(-350.48 -86.861)" fill="#f9b361"/>
        <path id="Path_12340" data-name="Path 12340" d="M613.005,152.514a1.653,1.653,0,1,1-1.654-1.629A1.641,1.641,0,0,1,613.005,152.514Z" transform="translate(-385.434 -150.885)" fill="#f9b361"/>
        <path id="Path_12341" data-name="Path 12341" d="M516.977,164.961a1.653,1.653,0,1,1-1.654-1.629A1.641,1.641,0,0,1,516.977,164.961Z" transform="translate(-491.262 -137.168)" fill="#f9b361"/>
        <path id="Path_12342" data-name="Path 12342" d="M630.394,189.487a1.653,1.653,0,1,1-1.652-1.629A1.641,1.641,0,0,1,630.394,189.487Z" transform="translate(-366.272 -110.139)" fill="#f9b361"/>
        <path id="Path_12343" data-name="Path 12343" d="M603.924,185.29a.826.826,0,1,1-.826-.813A.821.821,0,0,1,603.924,185.29Z" transform="translate(-393.619 -113.865)" fill="#f9b361"/>
        <ellipse id="Ellipse_1290" data-name="Ellipse 1290" cx="0.827" cy="0.815" rx="0.827" ry="0.815" transform="translate(330.795 86.774)" fill="#f9b361"/>
        <path id="Path_12344" data-name="Path 12344" d="M641.229,167.194a1.653,1.653,0,1,1-1.652-1.629A1.641,1.641,0,0,1,641.229,167.194Z" transform="translate(-354.331 -134.707)" fill="#f9b361"/>
        <path id="Path_12345" data-name="Path 12345" d="M536.723,187.716a1.194,1.194,0,1,1-1.194-1.175A1.184,1.184,0,0,1,536.723,187.716Z" transform="translate(-468.489 -111.591)" fill="#f9b361"/>
        <path id="Path_12346" data-name="Path 12346" d="M648.218,235.321a1.194,1.194,0,1,1-1.194-1.175A1.184,1.184,0,0,1,648.218,235.321Z" transform="translate(-345.616 -59.128)" fill="#f9b361"/>
        <path id="Path_12347" data-name="Path 12347" d="M505.4,210.3a1.194,1.194,0,1,1-1.194-1.177A1.185,1.185,0,0,1,505.4,210.3Z" transform="translate(-503.01 -86.708)" fill="#f9b361"/>
      </g>
    </g>
  </g>
</svg>
