<svg xmlns="http://www.w3.org/2000/svg" width="31.012" height="30.972" viewBox="0 0 31.012 30.972">
  <path id="shopping-basket" d="M30.064,11.658a3.87,3.87,0,0,0-2.926-1.334h-.111a11.614,11.614,0,0,0-23.084,0H3.872a3.872,3.872,0,0,0-3.833,4.42l1.369,9.581a7.782,7.782,0,0,0,7.665,6.647H21.938A7.783,7.783,0,0,0,29.6,24.324l1.369-9.581a3.874,3.874,0,0,0-.909-3.086ZM15.486,2.581a9.048,9.048,0,0,1,8.94,7.743H6.545A9.048,9.048,0,0,1,15.486,2.581ZM10.324,24.519a1.29,1.29,0,0,1-2.581,0V16.776a1.29,1.29,0,1,1,2.581,0Zm6.452,0a1.29,1.29,0,0,1-2.581,0V16.776a1.29,1.29,0,1,1,2.581,0Zm6.452,0a1.29,1.29,0,0,1-2.581,0V16.776a1.29,1.29,0,1,1,2.581,0Z" transform="translate(0)" fill="#fff"/>
</svg>
